<svg width="471" height="595" viewBox="0 0 471 595" fill="none" xmlns="http://www.w3.org/2000/svg">
<g opacity="0.1">
<path d="M20.5217 358.172C21.6539 361.286 21.937 363.267 23.0692 364.682C27.3151 370.485 31.9855 376.146 36.3729 381.949C44.5816 392.847 51.0919 404.452 46.563 418.888C45.2892 422.709 42.7417 426.531 40.0527 429.503C31.1364 439.693 27.032 451.581 25.3337 464.743C22.3616 488.52 25.3337 512.156 25.6167 535.932C25.6167 539.471 27.7397 543.009 28.7304 546.689C30.4287 553.199 32.8347 559.709 33.6839 566.503C37.7882 603.866 40.7603 641.372 45.7138 678.594C47.9783 696.002 53.781 712.985 58.4514 729.969C61.7066 742.14 72.0382 747.377 82.0868 752.755C91.2861 757.708 100.769 762.662 108.977 769.172C114.355 773.56 117.327 780.778 121.998 786.156C125.536 790.26 129.499 795.497 134.169 796.77C144.643 799.884 155.823 801.865 166.721 802.431C196.584 803.988 225.456 810.923 254.186 818.424C270.462 822.67 286.879 824.368 303.863 820.547C321.978 816.443 340.235 811.914 358.634 810.216C377.599 808.517 396.706 810.074 415.812 809.791C428.266 809.649 440.863 809.791 453.176 808.376C459.403 807.668 466.621 804.837 470.867 800.592C483.321 787.429 499.455 784.033 515.873 780.636C526.487 778.513 537.244 777.664 548 776.107C551.255 775.682 554.793 775.541 557.624 774.267C576.447 766.058 596.686 766.058 616.358 763.369C625.558 762.096 634.474 759.124 643.39 756.293C653.863 752.896 663.771 747.377 674.385 744.971C687.547 741.999 693.775 731.95 701.842 723.175C717.268 706.475 724.062 685.104 734.818 665.856C741.328 654.251 749.962 645.476 761.001 638.824C776.852 629.483 792.986 620.284 804.592 605.565C810.536 598.064 815.773 589.997 821.292 582.071C836.577 559.709 855.542 540.886 876.913 524.327C881.159 520.93 884.697 516.26 887.528 511.448C897.435 495.172 905.785 478.047 922.627 466.866C930.269 461.771 931.119 454.836 928.288 446.203C924.467 434.881 922.485 423.7 931.826 413.651C938.761 406.009 937.204 398.366 932.109 390.441C929.986 387.327 928.146 383.93 926.731 380.534C922.627 369.494 923.901 365.956 933.383 358.88C948.951 347.133 958.717 331.565 963.529 312.458C966.218 302.127 971.171 292.503 974.709 282.313C980.371 266.178 986.173 250.044 990.985 233.627C992.401 228.956 991.834 223.295 990.561 218.483C988.579 210.557 989.711 203.34 991.693 195.555C995.09 181.969 998.769 168.099 999.902 154.229C1000.61 146.303 997.354 137.67 994.807 129.745C992.542 122.81 990.561 116.582 993.674 109.364C997.071 101.297 996.93 92.947 994.382 84.4553C989.004 66.0565 982.069 48.5069 972.586 31.9481C966.501 21.4749 965.227 9.72797 966.501 -2.302C968.058 -17.304 964.661 -23.1068 950.791 -29.1924C942.865 -32.7307 934.798 -36.1274 926.731 -39.524C918.239 -43.2038 914.277 -49.5726 915.833 -58.6305C919.513 -78.5861 912.578 -96.8433 906.776 -115.242C906.209 -116.94 905.36 -118.922 904.087 -120.196C891.632 -133.924 879.602 -148.077 866.44 -161.239C852.853 -174.826 835.728 -182.751 816.763 -186.431C802.752 -189.12 791.43 -196.904 780.107 -205.113C767.37 -214.312 753.5 -221.813 740.055 -230.022C738.498 -231.013 736.516 -231.579 735.101 -232.57C706.654 -254.224 671.979 -261.3 639.569 -273.33C629.945 -276.868 619.472 -279.416 609.282 -279.84C594.987 -280.406 580.552 -279.416 566.257 -277.717C555.642 -276.443 545.452 -271.065 534.838 -270.499C522.525 -269.792 510.07 -271.915 497.757 -273.754C485.444 -275.594 473.697 -279.133 460.818 -277.434C446.807 -275.736 438.598 -267.386 430.389 -257.762C426.71 -253.516 422.888 -249.27 418.359 -246.156C408.735 -239.787 402.65 -231.72 398.97 -220.398C395.29 -208.934 387.789 -199.31 373.919 -197.329C365.145 -196.055 356.228 -194.074 347.878 -191.102C331.885 -185.724 327.215 -173.41 334.291 -158.267C340.66 -144.539 336.556 -134.065 321.837 -130.669C303.721 -126.423 285.181 -124.3 267.065 -119.771C254.61 -116.657 242.864 -111.279 230.834 -106.609C219.794 -102.363 209.18 -95.8526 197.716 -93.5881C179.6 -90.0499 164.881 -81.5582 151.153 -69.9528C136.575 -57.4982 126.951 -41.5055 116.761 -25.5128C108.694 -12.7751 98.221 -0.886719 86.4742 8.45416C67.7923 23.4562 55.3378 41.7136 50.1012 64.7828C48.8275 70.4439 49.3936 76.5296 48.969 82.3323C47.5537 98.042 40.9019 112.195 35.5238 126.772C31.5609 137.387 28.8719 148.285 25.0506 158.899C22.7862 165.127 20.5217 172.203 15.9928 176.732C6.79339 185.79 4.52892 196.688 4.52892 208.293C4.3874 224.993 5.23657 241.694 5.66116 258.536C5.66116 261.366 5.94421 264.48 4.95351 266.886C-1.55682 282.737 0.849173 299.438 0 315.855C0 316.987 0.141529 318.261 0.566116 319.393C4.24587 328.168 4.67045 337.084 3.25516 346.425C2.12293 354.492 6.51033 360.72 14.1529 363.126C15.8512 363.692 17.9742 362.701 19.814 362.418C19.1064 360.578 18.8233 357.748 17.6911 357.323C8.77479 353.785 9.76549 347.133 10.7562 339.632C11.4638 334.678 10.8977 329.159 9.48244 324.347C4.95351 307.222 7.78409 290.521 10.4731 273.396C12.4545 261.508 11.8884 249.195 12.1715 237.023C12.5961 223.861 12.03 210.699 13.3037 197.537C13.7283 192.725 17.4081 187.771 20.6632 183.809C26.6074 176.307 31.9855 169.09 33.2593 159.041C34.1085 152.106 36.7975 145.313 39.2035 138.802C43.0248 128.471 47.9783 118.422 51.0919 107.807C53.9225 98.4666 56.3285 88.5596 56.6116 78.9357C57.1777 52.8943 67.7923 32.5142 87.8894 16.8044C103.599 4.49139 116.761 -9.6615 126.102 -27.7772C138.132 -50.9879 156.106 -69.2452 178.893 -82.2658C183.846 -85.0964 189.79 -86.7947 195.593 -87.9269C215.407 -91.7482 231.966 -102.929 249.374 -111.845C252.488 -113.402 255.884 -114.676 259.281 -115.101C278.67 -117.79 298.06 -120.054 317.449 -122.743C321.129 -123.309 324.809 -124.3 328.347 -125.715C342.783 -131.235 348.303 -143.406 342.075 -157.559C338.962 -164.494 334.716 -171.854 340.802 -177.656C345.897 -182.468 353.539 -184.733 360.333 -187.422C364.154 -188.837 368.683 -188.695 372.929 -189.262C393.026 -191.668 402.65 -205.113 408.452 -224.502C410.009 -229.597 414.68 -233.985 418.501 -238.231C424.304 -244.599 432.654 -249.553 436.192 -256.912C443.41 -271.632 456.006 -272.339 468.885 -272.764C476.528 -273.047 484.17 -270.782 491.813 -269.367C497.191 -268.376 502.428 -267.244 507.664 -265.829C526.346 -260.734 543.471 -267.386 560.596 -273.33C573.758 -277.859 586.637 -277.859 600.366 -276.302C631.927 -272.622 660.798 -260.026 690.378 -250.119C702.549 -246.156 715.287 -242.618 725.336 -232.57C732.271 -225.635 742.602 -222.238 751.094 -216.86C763.124 -209.076 774.729 -200.584 786.901 -193.083C793.269 -189.12 800.204 -185.582 807.422 -183.884C837.71 -176.666 862.477 -161.38 881.017 -136.188C881.867 -135.056 882.716 -133.924 883.848 -132.933C907.766 -113.544 912.012 -86.9363 911.163 -58.489C910.738 -46.176 913.286 -41.5055 924.042 -35.9858C934.374 -30.7493 944.281 -25.0881 954.329 -19.4269C959.424 -16.4548 961.264 -12.209 960.557 -5.84021C958.434 10.8602 961.83 26.1453 970.039 41.572C978.672 57.9893 983.343 76.5297 988.721 94.5038C989.995 98.4667 988.438 103.986 986.598 108.232C983.626 115.167 983.484 121.819 986.598 128.046C997.071 148.992 993.25 169.797 986.032 190.46C982.21 201.217 980.654 211.69 984.05 222.871C985.041 226.267 984.758 230.372 983.767 233.768C978.248 251.035 973.436 268.443 966.218 285.002C961.406 296.041 958.009 307.222 954.612 318.686C950.225 332.98 941.733 345.293 929.279 354.351C918.098 362.418 916.258 368.787 920.645 381.807C921.636 384.921 923.193 387.893 924.891 390.724C932.251 403.178 932.109 403.037 923.617 414.925C916.117 425.54 918.381 437.004 922.202 448.185C924.325 454.412 923.617 459.224 918.381 462.479C902.105 472.811 892.764 488.803 884.131 504.938C878.187 515.835 869.27 523.195 860.071 530.271C840.398 545.132 825.113 563.955 812.093 584.477C802.752 599.337 791.005 611.509 776.569 621.133C768.926 626.228 760.859 630.757 753.217 635.71C733.827 648.165 724.911 668.12 716.419 688.076C709.201 705.201 696.322 718.08 685.283 732.375C683.018 735.347 677.923 736.054 673.961 737.611C662.78 741.999 651.741 746.386 640.418 750.349C633.2 752.896 625.699 755.444 618.198 756.576C603.762 758.841 588.619 758.133 574.89 762.237C547.858 770.446 519.411 770.163 492.662 778.938C484.453 781.627 476.669 786.722 469.734 792.1C462.658 797.478 455.582 801.724 446.807 801.724C420.341 801.582 394.016 801.158 367.551 800.875C365.286 800.875 362.88 801.016 360.616 801.582C346.746 804.837 332.876 808.517 318.865 811.631C309.382 813.754 300.041 815.877 290.417 817.15C276.547 818.99 263.385 815.735 250.223 811.489C223.616 802.714 196.301 798.186 168.419 796.204C157.946 795.497 147.473 793.515 137.141 791.109C133.886 790.26 129.924 786.863 128.65 783.75C121.998 767.615 108.977 758.274 94.3998 750.632C89.0217 747.801 83.3605 745.395 77.8409 742.565C69.4907 738.46 65.9525 731.101 64.1126 722.326C62.1312 712.702 59.0175 703.22 57.3192 693.454C53.781 672.366 50.5258 651.137 47.6952 630.049C45.4308 613.066 43.7324 595.941 42.0341 578.816C41.468 572.73 43.0248 566.078 40.9018 560.559C34.3915 543.009 32.6932 524.893 32.1271 506.636C31.4194 485.407 29.8626 463.611 39.7696 443.514C42.0341 438.985 45.5723 435.022 48.6859 430.777C54.3471 423.134 56.7531 414.925 54.6301 405.443C50.3843 386.761 38.0713 373.174 25.7583 359.446C24.626 358.88 23.2107 358.88 20.5217 358.172Z" fill="#A8A29E"/>
<path d="M304.146 -81.841C298.343 -81.841 294.239 -81.558 290.276 -81.841C248.949 -85.8038 215.549 -67.1219 185.12 -42.779C169.127 -30.0414 160.352 -11.9258 158.088 9.16205C157.663 13.2664 154.55 17.7953 151.294 20.4843C145.916 24.8718 139.689 28.8346 133.32 31.5237C122.706 36.0526 118.743 44.4028 117.752 54.7344C116.62 66.4813 110.534 75.256 101.052 81.3417C85.2004 91.5319 73.7366 104.411 70.7645 123.517C70.4814 125.357 69.6322 127.197 68.5 128.612C54.4886 146.87 55.0548 168.099 56.7531 189.328C57.8853 203.34 55.6209 217.068 49.3936 228.956C39.2035 248.346 34.3915 268.301 34.8161 290.097C34.9577 293.494 33.4008 296.89 32.4101 300.287C30.4287 306.797 30.2872 313.025 33.6839 319.393C35.0992 322.082 34.25 325.762 34.6746 329.017C35.0992 332.414 34.9577 336.235 36.656 338.924C39.3451 342.887 43.1663 346.142 46.7046 349.539C55.4794 357.889 61.5651 367.372 64.8203 379.26C66.8017 386.337 72.1798 392.281 75.2934 399.074C76.9917 402.612 78.2655 407.141 77.5579 410.821C73.7366 430.21 70.1984 449.458 60.5744 467.291C56.6116 474.509 57.4608 484.558 57.0362 493.332C56.6116 499.418 57.1777 505.645 58.1684 511.59C59.7252 520.223 61.8482 528.856 64.1126 537.348C68.7831 554.331 78.9731 570.324 73.5951 589.147C72.1798 594.101 70.6229 599.054 68.5 603.725C65.2448 610.801 64.9618 618.302 70.3399 623.68C79.8223 633.163 83.9267 644.485 87.4649 656.798C89.5878 664.299 91.7107 671.376 89.8709 678.877C87.3234 689.35 92.9845 696.568 101.052 701.946C103.882 703.786 107.562 704.635 111.1 705.201C129.924 708.032 145.775 716.523 160.494 727.987C172.948 737.611 186.394 745.961 199.273 755.019C216.964 767.474 236.778 767.898 257.016 765.634C282.492 762.803 307.684 764.643 333.159 767.898C350.143 770.163 367.409 770.163 384.676 770.163C397.413 770.163 408.452 763.653 417.369 755.019C428.125 744.688 441.146 740.866 455.015 739.31C464.781 738.177 474.829 738.46 484.595 737.753C514.033 735.771 543.33 733.648 572.768 731.525C581.401 730.959 590.176 730.676 598.809 729.403C611.263 727.563 623.718 725.157 636.031 722.326C650.042 719.071 659.525 710.013 666.035 697.417C670.847 688.218 675.801 679.16 681.179 670.385C685.141 663.875 685.566 657.223 684.575 650.005C681.886 631.04 682.169 630.757 699.436 622.548C703.965 620.425 708.352 618.302 712.881 616.321C725.194 610.801 736.799 604.574 746.14 594.242C753.358 586.317 761.567 578.816 770.342 572.73C778.409 567.21 787.891 563.672 796.666 559.426C802.327 556.737 806.29 552.774 806.573 545.981C806.715 544.424 807.564 542.867 808.555 541.594C816.622 531.545 824.831 521.497 832.898 511.448C834.171 509.75 835.87 508.193 836.577 506.353C844.645 481.444 866.865 465.734 877.762 442.665C878.045 442.099 878.47 441.391 879.036 440.967C892.764 431.767 898.143 417.048 901.539 402.329C904.653 389.167 907.059 375.156 905.643 361.994C903.662 342.321 908.049 325.762 919.513 310.336C922.061 306.797 924.184 302.41 924.891 298.306C927.014 284.86 931.543 272.406 938.903 260.942C944.422 252.45 945.838 243.251 942.158 233.91C933.383 210.982 940.743 190.602 950.933 170.363C956.594 159.183 961.972 148.002 967.209 136.68C970.464 129.745 970.322 122.527 967.067 115.45C965.086 111.204 963.812 106.534 961.406 102.43C951.782 86.5784 949.234 69.0287 946.687 51.1961C946.121 46.8087 943.998 42.1383 941.309 38.4586C928.996 21.192 914.56 5.34082 904.228 -13.0579C894.463 -30.3245 880.876 -42.779 866.723 -55.5166C860.496 -61.0362 855.825 -68.3958 850.872 -75.1891C837.143 -93.7294 824.547 -113.26 809.828 -130.952C797.374 -146.095 779.541 -152.181 759.869 -151.615C744.301 -151.19 737.79 -155.011 733.12 -170.013C729.299 -182.185 721.514 -191.526 713.589 -200.867C711.466 -203.414 707.786 -205.396 704.531 -205.82C693.35 -207.519 682.169 -209.642 670.989 -209.075C654.996 -208.226 640.843 -209.925 628.813 -221.955C613.103 -237.664 593.572 -240.495 571.918 -237.947C540.357 -234.126 509.646 -226.484 480.208 -215.161C468.885 -210.774 459.403 -201.008 450.345 -192.375C444.684 -186.855 441.429 -178.647 437.041 -171.853C435.343 -169.306 433.503 -166.758 431.239 -164.919C419.633 -155.719 407.603 -147.086 396.281 -137.603C386.091 -128.97 381.703 -117.506 384.534 -104.203C385.525 -99.3906 382.411 -98.8245 379.864 -96.9846C356.228 -79.7181 329.479 -79.7181 304.146 -81.841ZM298.768 -73.2077C329.621 -70.9432 359.483 -72.6416 386.232 -91.1819C393.026 -95.8524 394.441 -98.1168 391.894 -105.618C389.204 -113.543 393.592 -126.989 400.385 -132.225C412.274 -141.425 424.304 -150.482 435.909 -160.106C439.306 -162.937 441.712 -166.9 444.259 -170.58C448.647 -177.232 451.902 -185.016 457.421 -190.394C464.498 -197.47 472.424 -204.971 481.481 -208.226C511.061 -219.266 541.773 -227.05 573.051 -231.295C591.732 -233.843 609.282 -231.862 623.718 -217.992C626.265 -215.586 628.954 -213.038 632.068 -211.481C638.437 -208.368 645.089 -204.405 651.882 -203.414C662.072 -202.141 672.687 -204.122 682.877 -202.99C691.51 -202.141 701.842 -201.15 708.211 -196.055C715.853 -189.969 721.514 -180.062 725.336 -170.721C734.252 -149.209 739.064 -145.388 761.85 -145.104C778.975 -144.963 794.26 -139.302 805.158 -125.998C818.886 -109.156 831.765 -91.748 843.512 -73.6324C850.589 -62.7346 858.514 -53.2521 868.28 -44.9019C878.895 -35.9856 889.934 -27.494 895.312 -13.9072C897.435 -8.67059 902.105 -4.42468 905.643 0.387329C909.465 5.76538 913.286 11.002 917.107 16.3801C922.485 23.8811 927.439 31.6652 933.242 38.7416C937.629 44.1197 939.752 49.7809 941.026 56.4327C943.149 68.6042 945.838 80.9172 949.517 92.6641C952.065 100.873 956.452 108.657 960.415 116.441C963.812 123.093 963.67 129.603 960.557 136.113C955.179 147.436 949.517 158.475 944.139 169.797C934.374 190.461 927.297 211.407 936.355 234.335C940.177 243.958 936.78 252.309 932.534 261.225C927.439 271.698 924.467 283.162 920.362 294.06C918.24 299.721 916.117 305.382 913.003 310.477C904.653 324.205 898.567 338.358 899.982 355.059C900.69 364.541 900.69 374.307 899.416 383.789C897.718 395.111 894.746 406.151 891.491 417.048C890.075 421.719 886.537 425.965 883.565 430.069C878.328 437.145 872.526 443.939 867.148 451.015C861.203 458.941 855.401 466.866 849.598 474.934C845.777 480.17 840.823 485.124 838.417 490.926C831.907 507.344 820.16 519.798 809.828 533.385C806.29 538.055 803.743 543.575 800.629 548.67C799.497 550.368 798.365 552.35 796.666 553.341C791.996 556.171 787.467 559.568 782.372 560.842C769.068 564.238 759.444 573.296 750.528 582.354C737.083 596.082 722.505 607.405 704.531 614.198C699.011 616.321 693.916 619.293 688.538 621.699C680.471 625.379 676.791 631.465 677.499 640.381C677.782 644.061 678.773 647.882 678.49 651.562C678.065 657.081 677.923 662.884 675.659 667.696C670.706 678.311 664.761 688.642 658.676 698.691C653.439 707.324 646.079 713.693 636.031 716.948C622.444 721.194 608.857 724.024 594.563 724.874C551.255 727.138 508.23 733.931 464.781 733.082C460.535 732.941 456.289 733.507 452.043 734.215C438.881 736.479 426.002 739.31 415.953 748.934C403.782 760.822 389.346 766.625 372.504 765.917C360.899 765.492 349.152 765.634 337.971 763.511C305.419 757.284 272.726 758.557 240.033 761.388C229.701 762.237 219.653 760.539 210.737 755.019C196.018 745.82 180.874 737.045 167.146 726.289C149.879 712.844 131.763 702.512 109.685 699.257C99.0703 697.7 94.3998 690.765 95.6736 680.15C96.8058 671.234 96.2397 662.884 91.9938 654.817C91.1446 653.26 90.5785 651.279 90.437 649.439C89.5878 639.532 85.3419 631.606 77.8409 624.954C71.8967 619.718 70.0568 613.066 74.0196 605.282C78.6901 596.082 82.5114 586.175 80.3884 575.985C77.4163 561.832 73.4535 547.821 68.5 534.234C61.7066 515.552 62.9804 496.304 62.9804 477.198C62.9804 475.358 63.688 473.377 64.6787 471.82C75.8595 453.846 78.8316 433.607 82.936 413.793C84.2097 407.849 83.9267 402.471 80.813 396.81C75.718 387.61 71.4721 377.986 66.6601 368.645C62.5558 360.861 59.0176 353.219 51.9411 346.991C46.9876 342.604 39.3451 338.075 42.1756 328.31C43.1663 324.771 41.468 320.526 41.0434 316.563C40.4773 312.175 39.3451 307.646 39.6281 303.259C39.9112 297.739 42.1756 292.361 42.3172 286.842C42.6002 269.434 45.0062 252.733 54.2056 237.307C61.9897 224.286 63.8296 209.284 64.9618 194.565C65.811 181.969 64.5372 169.231 65.5279 156.635C66.094 150.125 69.4907 143.898 71.8967 137.67C73.8781 132.717 77.5579 128.188 78.6901 123.093C81.3791 109.223 88.5971 98.7499 100.344 91.3904C114.921 82.3325 124.404 69.8779 126.102 52.1868C126.668 46.2426 129.64 41.9968 135.443 39.1662C142.661 35.6279 149.313 31.099 156.106 26.8531C162.051 23.1734 165.589 18.0784 166.013 10.7189C167.004 -6.26459 174.081 -20.9836 185.827 -32.589C205.925 -52.5446 231.258 -64.1499 258.007 -72.7831C259.281 -73.2077 260.838 -73.2077 262.253 -73.2077C274.283 -73.2077 286.596 -73.2077 298.768 -73.2077Z" fill="#A8A29E"/>
<path d="M619.613 614.056C628.954 610.66 637.163 607.263 645.655 604.857C653.58 602.593 660.94 599.62 665.469 592.402C674.102 578.957 688.113 573.013 701.417 565.937C713.73 559.426 725.76 552.491 737.79 545.698C739.913 544.424 741.894 542.584 743.593 540.603C752.509 530.554 760.859 520.081 770.059 510.457C776.569 503.664 784.494 498.427 791.429 492.059C797.94 486.114 804.45 480.029 810.253 473.377C814.499 468.423 817.895 462.62 821.292 456.959C825.962 449.175 830.067 440.967 834.737 433.041C842.238 420.303 850.447 408.132 857.24 395.111C866.723 376.712 879.602 359.446 881.442 337.792C881.725 334.961 881.866 332.131 881.159 329.442C878.328 317.27 875.639 305.24 872.242 293.21C869.695 284.011 872.242 276.935 878.611 270.141C890.924 257.121 900.69 242.402 903.237 224.144C903.662 220.748 902.388 217.209 900.831 213.813C905.077 202.349 905.785 190.319 903.379 178.006C902.671 174.185 902.247 169.656 903.52 166.117C906.068 159.183 903.803 154.512 898.991 149.7C890.075 140.784 889.934 138.519 898.708 128.754C907.766 118.705 916.116 108.374 917.673 94.0792C919.088 81.0586 917.107 76.8127 905.077 71.4346C884.555 62.0937 864.034 52.6113 843.229 43.5535C837.568 41.1475 834.454 37.6092 834.171 31.382C833.322 17.6536 827.661 5.62366 820.867 -6.12323C817.046 -12.6335 814.64 -20.4176 813.366 -27.9186C811.102 -41.7885 804.875 -52.4031 793.269 -60.4703C785.344 -65.8484 778.409 -72.6418 771.332 -79.1522C769.492 -80.7089 768.643 -83.5396 767.653 -85.804C762.699 -96.5602 755.198 -104.769 743.734 -108.59C711.324 -119.205 682.311 -135.905 654.288 -155.012C643.249 -162.513 631.077 -168.457 619.047 -174.401C615.367 -176.241 610.131 -176.949 606.168 -175.816C582.108 -169.306 557.765 -168.74 533.139 -168.881C510.07 -168.881 489.265 -161.664 469.593 -150.058C462.375 -145.812 454.449 -142.557 446.948 -138.877C431.663 -131.376 418.218 -121.328 409.018 -106.892C398.687 -90.7576 385.524 -78.7275 367.409 -72.3588C351.699 -66.8391 335.706 -61.7441 320.28 -55.3753C307.117 -49.8557 294.38 -43.0623 281.642 -36.552C274.141 -32.7307 266.499 -28.7679 259.422 -24.0974C247.817 -16.7379 239.891 -6.12317 234.372 6.4729C232.249 11.1434 229.701 15.5308 227.437 20.2012C225.738 23.7394 223.332 27.5607 223.332 31.2404C223.332 37.0432 220.926 40.4398 216.256 43.2704C204.651 50.3469 193.045 57.4233 181.44 64.6412C176.769 67.6133 172.382 71.2931 167.853 74.5483C162.899 78.0865 157.946 81.4832 152.992 85.0214C144.218 91.3902 135.301 97.476 126.81 104.128C124.687 105.685 123.554 108.657 121.998 111.063C118.601 116.441 115.912 122.243 111.808 126.914C104.873 135.123 101.759 143.614 104.59 154.229C106.146 160.315 106.854 166.825 106.854 173.052C106.854 176.449 105.014 179.987 103.457 183.242C101.617 187.064 99.2115 190.46 97.2301 194.14C92.7012 202.349 90.5782 210.699 92.7012 220.465C93.5503 224.144 90.8613 228.956 88.8799 232.919C82.5111 245.515 75.4346 257.687 69.0658 270.283C64.6784 278.916 66.2352 286.417 73.7363 293.069C76.7084 295.758 78.9729 299.862 80.2466 303.684C83.2187 312.034 81.2373 316.28 73.7363 320.95C58.1681 330.574 57.885 341.33 73.0286 351.945C79.539 356.615 86.7569 360.154 92.9842 365.249C96.5224 368.221 98.5038 373.174 101.193 377.279C106.713 386.053 110.251 395.536 108.411 406.009C105.439 422.992 107.562 439.834 110.392 456.535C111.1 460.498 111.666 464.602 111.1 468.423C109.685 479.462 109.402 489.511 114.78 500.409C117.893 506.636 114.497 515.977 113.931 524.044C113.789 525.742 113.081 527.724 113.789 528.856C123.696 544.849 116.336 561.974 116.62 578.533C116.761 588.864 119.733 598.064 124.97 606.555C126.668 609.386 130.631 611.933 134.028 612.5C148.464 614.906 153.559 624.246 153.7 637.409C153.842 644.344 156.955 649.156 162.475 653.401C178.326 665.431 196.866 671.8 214.699 679.726C240.882 691.331 267.914 698.974 296.786 697.558C311.788 696.851 326.648 694.303 341.651 692.463C351.275 691.331 360.757 689.916 370.381 689.067C381.845 688.218 392.884 689.208 404.206 693.596C425.153 701.663 445.816 700.955 463.648 684.679C472.282 676.754 482.896 674.631 493.794 674.772C513.325 674.772 532.998 676.895 552.387 675.763C572.343 674.631 590.034 666.281 603.479 650.712C605.177 648.873 607.3 647.316 609.565 645.9C612.678 643.777 616.217 642.221 619.189 640.098C627.964 633.729 628.671 629.483 623.152 620.425C622.302 618.727 621.453 617.17 619.613 614.056ZM297.635 693.454C282.916 691.897 270.178 691.897 258.148 688.925C243.571 685.387 229.418 680.009 215.69 674.065C199.555 667.13 183.846 658.921 168.136 650.995C161.626 647.74 158.654 642.221 158.512 635.003C158.371 619.576 150.87 610.518 135.584 607.546C132.754 606.98 129.782 604.008 128.083 601.319C119.309 587.449 120.582 572.305 123.13 556.879C123.979 551.925 124.545 546.123 122.564 541.877C117.469 530.413 118.884 518.949 119.875 507.202C120.299 501.966 118.035 496.446 116.903 491.209C116.195 487.671 114.638 484.133 114.638 480.595C114.214 468.706 114.355 456.676 113.931 444.788C113.647 434.739 112.091 424.691 112.657 414.642C113.223 403.461 114.921 392.422 109.26 382.232C105.014 374.448 101.051 366.098 95.2487 359.587C90.4367 354.068 83.0772 350.813 76.9914 346.425C66.2352 338.924 66.3768 333.263 77.416 326.47C84.351 322.224 89.0214 316.704 88.1722 308.071C87.4646 300.287 84.7755 293.21 78.5483 288.257C73.0286 283.728 72.0379 278.633 75.1516 272.689C81.6619 260.234 88.4553 247.921 94.6826 235.184C96.947 230.513 99.9191 224.71 99.07 220.04C97.3716 211.265 98.9284 203.906 103.033 196.546C105.014 193.149 107.42 189.894 108.977 186.356C110.817 182.252 113.223 177.723 113.223 173.477C113.223 166.542 112.232 159.324 110.534 152.531C108.411 144.322 110.817 137.812 115.77 131.584C118.742 127.905 122.564 124.508 124.262 120.262C130.206 104.835 143.935 98.1836 156.389 89.9749C161.626 86.4367 166.721 82.757 171.816 79.0772C176.203 75.9636 180.308 72.4253 184.836 69.5947C196.442 62.0937 208.33 55.0173 220.077 47.6578C225.314 44.4026 228.569 40.0153 228.852 33.3634C228.994 29.9667 231.541 26.5699 233.381 23.3148C234.938 20.4842 237.627 17.9367 238.617 14.9646C243.854 -2.7265 254.61 -15.4641 271.594 -23.1067C276.972 -25.5127 281.642 -29.1925 286.879 -31.8815C301.032 -39.241 313.486 -49.2896 329.621 -53.3939C345.755 -57.4982 361.465 -63.4424 377.033 -69.2451C392.601 -75.0478 403.64 -86.5116 412.84 -100.098C423.454 -115.808 436.758 -128.404 455.298 -134.773C460.393 -136.471 465.205 -139.302 469.593 -142.274C489.124 -155.436 510.353 -162.371 533.988 -162.654C558.756 -162.937 583.523 -162.654 607.583 -170.58C610.272 -171.429 614.235 -170.58 616.924 -169.165C628.247 -163.362 639.993 -158.125 650.325 -150.907C678.631 -131.376 708.352 -114.817 741.045 -103.92C750.245 -100.806 756.755 -94.7203 761.425 -86.3702C768.785 -73.0665 779.541 -62.7348 791.005 -53.2524C798.364 -47.1666 802.61 -39.524 805.016 -30.3246C807.988 -19.1439 812.376 -8.24615 816.055 2.79309C819.028 11.5679 822.99 20.3427 824.547 29.4006C826.387 40.7229 830.916 48.2239 841.955 52.7529C860.637 60.3954 878.894 69.3116 897.293 77.8034C909.606 83.4645 911.587 87.852 907.058 100.873C905.077 106.251 901.539 111.204 898.284 116.016C895.878 119.696 892.339 122.81 889.792 126.489C881.725 138.519 882.149 143.473 892.34 153.521C896.019 157.06 897.435 160.456 896.727 165.834C895.878 172.062 897.293 178.43 897.435 184.799C897.576 191.734 897.718 198.811 897.435 205.746C897.151 212.114 891.49 218.059 896.302 224.852C896.727 225.418 896.444 226.833 896.161 227.541C893.189 234.9 890.783 242.685 886.678 249.478C882.008 257.121 875.922 263.772 870.403 270.707C866.157 275.944 863.751 281.464 865.307 288.257C868.563 301.985 871.676 315.572 874.79 329.3C875.356 331.848 875.639 334.395 875.498 336.943C874.224 357.889 862.194 374.59 852.145 391.431C842.946 406.717 832.19 420.869 826.245 437.853C825.396 440.542 823.981 442.948 822.424 445.354C816.622 453.987 811.243 462.904 804.733 470.971C799.78 477.056 793.835 482.435 787.891 487.671C780.39 494.464 772.04 500.267 764.964 507.485C755.34 517.392 746.706 528.431 737.648 538.763C736.799 539.754 735.525 540.744 734.393 541.311C722.222 547.962 710.05 554.614 697.737 560.983C683.867 568.06 669.573 574.428 660.798 588.298C656.977 594.242 651.316 596.79 644.664 598.771C636.314 601.177 628.105 604.291 620.038 607.688C612.82 610.801 612.112 614.623 616.217 620.991C622.161 630.049 621.595 631.889 612.395 637.409C608.008 640.098 602.771 642.079 599.516 645.9C586.354 661.327 569.229 669.111 549.698 669.96C531.158 670.668 512.476 668.828 493.936 668.828C479.641 668.828 466.762 672.791 456.006 683.406C452.185 687.085 446.382 689.633 441.145 690.765C428.266 693.737 415.67 692.605 403.074 687.51C395.432 684.396 386.657 683.264 378.448 683.264C367.833 683.264 357.36 685.104 346.746 686.378C330.045 688.784 312.779 691.331 297.635 693.454Z" fill="#A8A29E"/>
<path d="M110.817 327.602C113.931 330.15 116.761 331.565 118.035 333.688C119.309 335.811 119.026 338.783 119.45 341.331C120.724 347.558 120.866 354.351 123.413 359.871C126.668 366.664 129.074 372.75 127.518 380.676C126.81 384.355 130.207 388.743 131.905 392.847C133.886 397.659 136.009 402.471 138.132 407.283C139.548 410.397 140.963 413.652 142.944 416.482C146.058 420.87 147.049 424.974 144.926 430.352C141.529 438.561 139.406 447.053 140.821 456.394C142.237 466.442 141.812 476.632 142.52 486.681C142.944 491.351 143.227 496.588 145.492 500.267C153.417 512.864 154.55 526.592 155.257 540.886C155.823 552.775 157.946 564.663 159.928 576.41C160.352 578.816 162.475 581.788 164.598 583.062C170.684 586.459 177.477 588.723 183.705 591.978C190.498 595.516 197.008 599.621 203.66 603.3C213.426 608.82 222.908 615.472 233.24 619.576C255.46 628.351 278.246 635.003 302.447 635.852C309.099 636.135 315.751 639.107 322.403 640.098C332.593 641.513 342.925 643.353 353.115 642.929C367.409 642.221 381.703 640.24 395.856 637.692C412.981 634.578 430.389 631.748 446.665 626.087C463.932 620.284 480.774 620.709 498.182 622.124C511.769 623.115 525.497 623.539 539.225 623.115C551.538 622.69 560.171 614.057 568.946 606.697C576.164 600.611 581.967 592.969 589.326 587.166C594.563 583.062 601.073 580.09 607.442 578.108C617.915 574.712 627.822 570.89 637.305 564.38C652.59 553.907 669.573 546.123 685.141 536.074C692.359 531.404 698.445 524.469 704.248 517.817C708.635 512.722 710.9 505.504 715.712 500.975C722.081 495.031 729.723 489.794 737.649 486.256C754.208 479.038 767.794 468.707 777.56 453.704C780.532 449.176 782.372 443.514 783.646 437.995C786.618 425.682 787.891 412.803 791.854 400.773C794.402 392.705 799.638 385.346 804.592 378.27C813.084 365.957 818.462 352.511 819.169 337.509C819.735 326.895 822.991 317.554 830.35 309.911C841.248 298.589 844.928 284.86 845.069 269.858C845.211 258.961 844.786 248.063 845.352 237.307C845.635 232.353 846.626 226.409 849.456 222.729C858.373 210.982 857.241 198.669 852.146 186.498C847.9 176.449 846.909 167.533 853.136 157.768C857.099 151.399 857.665 144.039 855.259 136.538C851.579 125.924 852.57 116.017 858.797 106.109C863.751 98.3254 862.619 94.3625 856.25 87.9938C840.257 72.1425 822.141 59.8295 800.487 53.1777C799.072 52.7531 797.798 52.187 796.525 51.7624C782.23 46.2428 782.372 46.2428 781.806 31.5238C781.098 14.8234 778.267 -1.31091 765.53 -13.7654C764.115 -15.1807 762.841 -17.1622 762.275 -19.1436C755.623 -38.3915 743.876 -54.6673 731.987 -70.6601C726.892 -77.595 718.401 -83.6808 710.192 -86.3698C695.756 -91.1818 683.585 -99.1074 671.555 -107.882C668.441 -110.147 665.327 -112.128 662.214 -114.251C630.936 -136.188 595.412 -137.037 559.605 -133.499C530.026 -130.527 501.437 -121.894 473.556 -111.279C462.658 -107.175 454.449 -99.9566 447.939 -90.0496C438.173 -75.0475 425.86 -62.4515 409.868 -53.8182C380.854 -38.1085 352.124 -21.9741 322.827 -6.68903C311.222 -0.603271 298.909 4.91638 286.313 8.17151C254.186 16.8048 234.796 38.7417 221.634 67.4721C219.228 72.8502 216.115 76.1053 210.737 78.3698C200.546 82.6157 190.923 88.2768 180.732 92.6642C166.296 99.033 161.768 112.478 160.777 125.357C159.645 139.935 152.71 150.974 146.482 163.004C143.086 169.797 139.406 177.582 139.689 184.8C140.114 193.574 137.849 200.934 134.028 208.152C132.188 211.549 130.065 215.087 127.234 217.776C116.62 227.683 111.1 239.713 113.789 253.866C115.771 264.48 114.072 274.387 109.26 283.304C102.467 295.758 102.325 306.797 112.091 317.695C114.072 320.667 117.186 324.347 110.817 327.602ZM837.851 256.13C837.851 260.659 837.851 265.046 837.851 269.575C837.993 283.728 834.313 296.466 824.264 307.081C815.348 316.563 813.933 328.593 811.81 340.906C809.97 351.804 806.715 363.409 800.487 372.184C789.731 387.469 782.796 403.745 781.098 422.143C778.409 450.166 763.407 468.99 738.215 479.321C723.637 485.265 711.749 493.333 704.248 507.485C702.549 510.599 700.993 513.996 698.587 516.402C693.492 521.78 688.538 527.724 682.452 531.545C665.469 542.302 647.778 552.35 630.37 562.54C626.124 564.946 622.02 567.777 617.491 569.475C609.707 572.589 600.649 573.579 593.714 577.967C584.373 584.053 576.447 592.261 568.097 599.904C555.926 611.085 543.188 619.718 525.355 617.736C511.485 616.18 497.616 615.472 483.746 615.189C474.829 615.047 465.489 614.764 457.138 617.312C431.097 625.096 405.056 632.314 377.741 633.446C374.485 633.588 371.23 634.295 368.117 635.286C352.832 639.956 337.688 640.381 322.261 635.428C314.902 633.163 307.118 631.465 299.475 630.899C271.594 629.059 245.128 621.699 220.644 608.537C205.217 600.328 192.479 587.308 174.222 584.477C171.675 584.053 169.269 581.788 167.004 580.09C165.73 579.099 164.174 577.684 164.032 576.268C162.617 563.389 160.069 550.51 160.494 537.773C160.777 525.035 159.22 513.43 152.851 502.532C151.719 500.551 150.021 498.428 149.879 496.163C147.615 474.509 142.661 452.714 150.162 431.201C152.71 423.983 151.153 418.464 146.341 412.944C144.501 410.821 143.51 407.849 142.237 405.018C140.255 400.348 139.123 394.97 136.151 391.149C132.613 386.478 132.188 382.091 132.471 376.713C132.754 371.901 131.622 366.806 130.348 361.994C129.216 357.889 126.668 354.351 125.536 350.247C124.828 347.699 124.828 343.595 126.385 342.18C132.33 336.377 129.216 331.707 125.678 326.753C121.856 321.375 118.035 315.997 114.072 310.902C108.836 304.25 108.411 297.457 112.515 289.814C119.026 277.926 122.423 265.471 119.45 251.743C117.327 241.694 121.007 232.353 127.801 225.843C139.972 214.238 146.341 201.217 145.775 184.233C145.633 178.572 149.03 172.628 151.153 166.967C151.861 164.986 153.417 163.429 154.408 161.589C160.069 150.833 165.73 140.784 166.438 127.622C167.287 113.469 173.514 100.307 189.366 95.3533C194.319 93.7964 198.565 90.3998 203.377 88.843C217.247 84.3141 226.588 75.6808 231.117 61.6694C235.221 49.3564 245.977 41.8554 254.186 32.656C257.441 29.1178 261.404 25.5796 265.65 23.7397C277.114 18.9277 289.427 15.9556 300.749 10.7191C318.865 2.22729 336.414 -7.39667 354.105 -16.596C374.627 -27.3522 395.149 -37.8254 415.387 -49.0062C430.531 -57.3564 442.561 -69.6694 451.76 -83.9638C458.695 -94.437 467.045 -101.655 478.651 -105.618C487.143 -108.448 495.634 -111.42 504.126 -113.826C535.545 -122.46 566.823 -131.234 600.083 -127.13C618.057 -124.866 635.606 -122.318 650.891 -111.703C657.26 -107.316 663.912 -103.212 670.281 -98.8243C681.462 -91.0403 692.926 -84.1053 706.229 -79.718C713.589 -77.312 721.373 -71.9339 725.619 -65.5651C736.233 -49.8553 744.867 -32.8719 754.208 -16.313C755.906 -13.4825 757.321 -10.3688 759.586 -8.10431C772.465 5.34094 774.163 22.1829 772.889 39.3079C772.323 46.3843 774.588 50.2056 780.107 52.8947C786.052 55.7252 792.137 58.2728 798.506 60.2542C818.462 66.7645 835.021 78.3698 850.164 92.6642C853.844 96.0609 854.41 99.1746 851.721 103.137C844.22 114.177 844.361 125.782 847.334 138.378C848.607 143.615 848.183 150.691 845.494 155.22C838.983 166.401 839.691 176.732 844.645 188.196C849.173 198.669 850.306 209.143 842.38 219.616C838.983 224.145 838.134 230.938 837.427 236.882C837.143 243.393 837.851 249.761 837.851 256.13Z" fill="#A8A29E"/>
<path d="M140.962 365.815C143.934 369.636 146.765 372.891 149.029 376.43C150.02 377.845 150.586 379.826 150.728 381.525C151.011 385.346 151.011 389.026 151.011 392.847C151.152 411.246 155.54 428.229 169.976 440.542C184.978 453.563 177.618 468.565 175.92 483.708C174.363 497.154 174.08 510.882 174.788 524.327C175.354 534.093 179.034 543.575 180.59 553.341C182.147 562.115 186.535 567.918 195.168 570.466C207.764 574.145 219.369 579.382 227.436 590.704C229.135 593.11 233.522 594.242 236.777 594.809C250.93 597.073 265.366 598.488 279.378 601.177C288.718 603.017 298.059 605.848 306.834 609.386C314.335 612.5 321.553 614.057 329.337 611.651C342.924 607.405 356.511 608.112 370.522 610.235C395.714 614.057 420.765 612.075 445.674 607.122C468.743 602.734 490.822 596.082 511.626 584.76C520.118 580.231 530.45 579.099 540.074 576.834C565.691 570.607 590.033 562.115 610.697 544.566C618.198 538.339 628.105 533.385 637.587 531.404C661.647 526.167 677.074 511.59 685.141 489.511C690.519 474.934 699.718 466.583 714.579 463.187C720.806 461.771 726.75 459.507 732.553 456.959C742.743 452.572 745.149 447.477 742.46 436.862C740.62 429.786 741.752 423.417 747.414 418.888C756.188 411.953 757.745 402.046 759.585 391.998C762.699 375.156 765.671 358.314 769.209 341.613C769.775 338.641 772.464 335.952 774.729 333.688C779.824 328.451 782.371 322.79 781.947 315.289C781.098 301.844 780.248 288.399 780.956 274.953C781.239 268.585 783.503 261.367 787.183 256.13C801.336 235.325 809.686 213.247 806.29 187.772C805.723 183.101 804.45 178.431 802.61 174.185C792.703 151.965 781.239 130.311 773.03 107.525C767.511 92.2395 757.462 80.3511 748.97 67.3304C746.706 63.9338 745.149 59.6879 744.3 55.725C742.319 46.9503 739.063 39.1662 731.421 33.6466C730.289 32.7974 729.581 31.3821 728.449 30.6744C713.871 21.475 709.484 8.31287 711.182 -8.52911C712.881 -25.088 705.946 -39.3823 695.331 -51.8369C693.35 -54.1014 690.944 -56.3658 689.811 -59.1964C682.169 -78.0198 665.185 -84.6716 647.919 -89.7666C624 -96.9846 599.233 -98.3999 574.465 -95.0032C565.266 -93.7294 556.35 -89.7666 547.858 -85.9453C526.77 -76.4629 507.098 -65.4236 491.246 -47.3079C479.075 -33.2966 463.931 -20.9836 448.08 -11.2181C437.182 -4.42468 422.888 -2.72638 409.867 0.245728C388.779 4.9162 367.409 8.59595 346.321 12.9833C336.697 14.9647 328.205 19.2106 321.129 26.4286C318.581 28.9761 314.901 30.6745 311.363 31.9482C304.287 34.3542 299.616 39.0247 297.918 46.1011C294.097 62.8015 283.623 71.7178 266.923 74.5484C258.007 76.1052 251.779 81.7664 246.684 89.8335C243.146 95.4946 237.485 100.731 231.682 104.128C221.068 110.072 214.133 119.13 208.33 129.037C205.924 133 204.933 138.519 205.358 143.19C206.915 163.287 200.829 182.393 197.149 201.641C196.442 205.038 193.328 209.142 190.073 210.699C162.333 224.569 145.774 249.195 129.498 273.68C119.025 289.248 123.554 306.797 129.64 323.356C132.895 332.414 137.566 340.481 145.208 347.133C152.709 353.643 151.294 359.729 140.962 365.815ZM151.718 367.23C155.115 355.2 157.521 351.804 144.501 339.632C142.661 337.934 140.538 336.094 139.547 333.829C134.027 321.233 129.781 308.496 129.923 294.343C130.065 286.559 132.329 280.048 137.283 274.246C139.122 272.123 140.821 269.858 142.519 267.594C156.672 247.214 171.957 227.966 194.885 216.219C199.131 214.096 203.377 208.435 204.226 203.906C207.481 185.932 214.557 168.524 212.859 149.7C211.161 130.877 222.058 119.838 236.494 110.497C242.863 106.392 249.232 101.156 253.336 94.9286C257.865 87.9937 262.96 83.3232 270.744 81.9079C289.426 78.6528 301.173 68.038 305.702 49.4977C306.976 44.2612 310.231 41.2892 315.326 39.3077C320.279 37.3264 324.525 33.7881 329.054 30.9575C333.442 28.2684 337.546 24.4471 342.216 23.3149C353.397 20.4843 364.861 19.3521 376.042 16.9461C396.563 12.5587 416.944 7.88831 437.324 2.93481C443.41 1.37799 449.92 -0.744934 454.732 -4.42468C469.451 -15.8885 485.019 -26.6448 497.191 -40.5146C511.06 -56.3658 527.902 -66.6974 546.16 -75.6137C562.577 -83.6808 579.843 -89.2006 598.525 -88.2098C610.272 -87.5022 622.161 -87.0776 633.624 -84.6716C654.005 -80.4257 674.385 -75.4722 684.009 -53.3937C684.858 -51.5538 686.415 -49.8555 687.83 -48.2986C698.445 -36.4102 706.229 -22.5404 703.964 -6.68915C700.709 15.3893 712.031 28.41 727.458 40.723C731.421 43.8367 734.959 49.0732 735.95 54.0267C738.922 68.3211 747.555 78.9358 756.33 89.8335C758.17 92.098 760.01 94.787 761.142 97.4761C764.114 104.269 766.661 111.487 769.775 118.281C773.88 127.339 779.399 135.83 782.088 145.171C785.343 156.211 789.872 166.259 795.392 176.166C797.939 180.695 798.93 186.498 799.496 191.734C801.478 214.379 793.977 234.193 780.956 252.45C777.276 257.545 774.446 264.339 774.021 270.424C773.172 284.719 773.738 299.155 774.304 313.449C774.587 320.384 773.596 326.328 767.652 330.999C765.388 332.697 763.406 335.811 762.84 338.641C759.302 355.908 755.905 373.174 752.792 390.441C751.235 399.499 749.678 408.274 742.036 414.925C735.384 420.728 733.119 428.512 735.242 437.428C737.365 446.345 736.233 448.751 727.175 452.147C718.825 455.261 710.192 457.95 701.7 460.639C692.359 463.753 686.273 470.263 682.31 479.038C680.753 482.435 679.48 485.973 677.923 489.37C669.714 507.485 657.684 520.931 636.738 524.327C624 526.45 613.81 533.668 603.62 541.028C594.562 547.538 584.938 554.048 574.748 558.294C560.879 563.955 546.301 568.201 531.582 571.456C515.306 574.995 501.578 583.911 486.434 589.431C448.505 603.3 409.16 608.537 368.965 604.291C355.096 602.876 341.367 602.451 327.78 606.98C323.251 608.537 317.166 608.254 312.778 606.414C296.219 599.196 278.67 597.781 261.12 595.799C246.826 594.101 232.815 594.384 221.775 581.505C215.831 574.57 204.933 571.739 195.875 567.918C189.648 565.229 185.827 561.691 184.695 554.756C182.996 544.849 179.317 535.083 178.609 525.035C177.76 512.722 178.326 500.126 179.458 487.813C180.307 478.755 183.562 469.839 184.553 460.781C184.978 456.676 183.421 451.864 181.298 448.185C178.609 443.373 174.646 438.985 170.825 434.881C161.909 425.54 157.521 414.501 156.814 401.763C156.389 393.979 156.106 386.195 155.398 378.411C155.115 375.014 153.417 372.042 151.718 367.23Z" fill="#A8A29E"/>
<path d="M417.511 585.043C439.448 584.76 459.12 577.117 477.66 566.361C488.7 559.992 499.739 556.595 512.476 556.737C522.95 556.878 533.706 555.605 544.037 554.048C555.077 552.349 564.842 547.254 574.183 540.886C585.647 533.101 597.818 526.308 610.131 519.798C621.312 513.712 631.078 506.636 638.437 496.021C641.268 491.917 646.787 489.511 650.892 486.255C655.421 482.717 661.223 479.745 663.771 475.075C671.98 460.073 684.434 451.015 699.861 445.495C704.248 443.938 708.919 442.948 713.306 441.108C719.533 438.419 720.382 434.173 716.137 428.795C715.995 428.653 715.854 428.37 715.712 428.229C712.598 424.549 706.23 419.737 707.079 417.331C708.777 411.953 713.872 407.424 718.118 403.178C723.354 397.8 729.299 392.988 734.96 388.176C742.319 381.949 745.433 374.023 745.292 364.399C745.15 357.04 745.433 349.822 745.999 342.462C746.848 331.423 747.273 320.384 755.34 311.326C757.746 308.495 758.595 303.542 758.595 299.437C758.737 289.813 757.321 280.048 757.746 270.424C758.029 262.64 759.869 254.714 761.567 247.072C766.521 226.125 772.607 205.32 776.711 184.091C777.985 177.722 775.579 170.08 773.314 163.569C770.342 155.219 766.379 147.011 762.133 139.226C757.746 131.159 755.34 122.385 752.368 113.751C748.83 103.278 742.178 93.6542 735.526 84.7379C729.299 76.3876 722.647 68.7451 719.675 58.4135C716.561 47.3743 708.636 39.5901 700.285 32.0891C697.03 29.1169 693.35 24.588 693.209 20.4836C692.218 2.50952 679.764 -8.38824 669.998 -21.2673C651.741 -45.6104 623.86 -49.4316 597.677 -57.2156C593.006 -58.6309 587.77 -60.0463 583.099 -59.4802C574.183 -58.4894 563.993 -58.4894 556.775 -53.9605C537.952 -42.4966 518.279 -33.1557 497.616 -25.7962C484.878 -21.2673 473.131 -15.3231 464.781 -3.57623C462.234 0.103516 456.997 2.65106 452.61 4.34943C430.39 12.6996 408.17 21.3328 385.525 28.2678C371.655 32.5136 356.795 33.3628 342.642 36.3349C328.206 39.3071 323.394 44.402 321.271 58.6965C319.997 67.1882 316.6 73.4155 308.675 77.8029C303.58 80.4919 300.042 85.87 295.23 89.1252C290.701 92.0973 285.323 94.9279 280.228 95.494C269.613 96.6263 261.546 100.023 255.885 109.788C253.196 114.317 248.1 117.856 243.43 120.828C237.344 124.791 233.24 129.744 231.966 136.962C231.825 137.953 231.683 138.943 231.259 139.651C222.484 155.361 224.89 171.495 227.013 188.337C228.57 200.65 221.068 211.831 212.294 220.889C205.925 227.399 198.707 233.202 191.914 239.429C181.157 249.336 169.977 258.818 160.07 269.292C144.36 285.992 136.717 313.307 159.22 336.518C160.211 337.508 161.06 338.641 162.192 339.631C174.364 350.246 175.921 362.842 170.401 377.42C169.127 380.816 169.269 385.628 170.826 388.883C173.656 394.969 177.902 400.347 181.44 406.15C190.781 421.294 198.707 435.871 200.688 455.119C203.377 479.887 197.433 503.38 197.999 527.582C198.424 541.735 202.953 549.377 216.398 553.199C232.249 557.586 248.384 560.841 264.518 564.662C266.782 565.229 269.33 565.512 271.17 566.785C287.162 578.108 305.844 577.683 324.102 579.098C345.755 580.655 367.268 582.495 388.922 584.193C398.263 583.91 407.887 584.335 417.511 585.043ZM711.466 431.767C711.042 432.616 710.475 433.607 710.051 434.456C705.663 435.871 701.135 437.003 696.747 438.702C679.905 444.929 666.318 454.978 657.544 471.253C655.704 474.792 651.175 476.915 647.778 479.604C642.683 483.566 636.456 486.68 632.634 491.634C625.7 500.833 617.349 507.485 607.584 512.863C594.139 520.222 580.835 527.865 567.956 536.074C558.049 542.584 547.434 546.688 535.829 548.104C527.62 549.236 519.411 549.66 511.203 549.377C497.757 548.953 486.011 552.916 474.405 559.567C452.61 572.163 429.541 579.665 403.641 576.975C373.495 573.862 343.066 572.447 312.779 570.182C299.051 569.191 285.606 567.776 273.859 559.426C271.311 557.586 267.631 557.303 264.518 556.454C249.374 552.916 234.089 549.943 219.087 545.839C206.774 542.442 203.802 537.489 204.51 524.468C206.066 497.295 209.746 470.404 206.491 442.806C204.227 423.558 193.753 410.396 182.573 397.092C177.336 390.723 174.222 383.647 176.77 375.58C181.723 360.578 181.157 346.849 168.42 335.386C166.014 333.263 163.891 330.574 161.909 328.026C148.464 310.476 149.455 289.53 165.165 273.679C174.93 263.913 185.545 254.856 195.735 245.515C203.377 238.58 211.869 232.211 218.521 224.427C230.268 210.982 239.326 195.838 233.381 176.873C228.286 160.314 237.769 146.728 241.732 132.008C242.439 129.603 246.119 128.046 248.384 126.064C253.337 121.535 258.998 117.431 262.961 112.053C266.782 106.958 270.604 102.995 277.114 102.995C289.71 103.137 298.909 96.9093 306.977 87.993C308.533 86.2946 310.373 84.4548 312.355 83.6056C323.252 78.5106 328.064 69.5942 328.772 58.2719C329.338 48.5064 335.565 44.8267 343.632 43.1283C354.955 40.7223 366.277 39.024 377.599 36.7595C387.082 34.7781 396.564 33.2213 405.764 30.2492C420.341 25.4372 434.636 20.0591 448.647 13.9734C456.714 10.4352 465.489 6.33081 471.15 0.103577C479.076 -8.6712 488.275 -14.474 499.031 -18.4368C520.402 -26.0793 541.207 -34.7125 560.03 -47.7332C567.107 -52.6867 575.598 -54.8097 584.373 -52.5452C598.526 -48.8655 612.537 -44.9026 626.549 -41.2229C640.985 -37.4016 653.581 -31.0328 662.922 -18.7198C672.829 -5.6991 685.425 5.48163 686.557 23.5974C686.84 27.8432 690.803 32.5137 694.341 35.6273C704.248 43.9775 711.042 53.743 715.429 65.9145C717.552 71.8587 722.222 76.9538 725.761 82.4734C732.271 92.3804 739.064 102.287 745.433 112.336C746.707 114.317 746.707 117.289 747.273 119.837C747.981 123.092 748.405 126.489 749.679 129.319C754.491 139.51 759.161 149.841 764.681 159.748C771.899 172.627 772.04 185.931 768.078 199.376C763.266 215.794 756.189 231.786 752.793 248.487C750.103 261.649 751.519 275.519 750.811 289.106C750.528 295.333 751.519 302.975 748.264 307.221C741.046 317.128 739.63 327.885 738.64 339.207C737.932 348.406 738.357 357.606 737.083 366.663C736.375 371.475 734.252 376.57 731.139 380.25C726.327 385.911 720.099 390.44 714.58 395.677C710.051 400.064 705.805 404.876 701.701 409.688C697.313 414.783 697.172 420.02 702.55 424.549C705.38 427.238 708.494 429.502 711.466 431.767Z" fill="#A8A29E"/>
<path d="M414.255 547.962C425.719 549.944 435.201 546.689 442.702 537.489C443.551 536.499 444.825 535.508 446.099 534.942C466.196 525.742 486.293 518.383 509.221 526.309C521.392 530.554 534.696 533.102 547.151 526.875C558.614 521.213 571.635 517.817 579.702 506.636C581.401 504.372 584.797 503.381 587.203 501.541C592.298 497.72 597.535 494.181 601.922 489.653C607.159 484.274 612.395 479.887 620.038 478.189C623.01 477.481 626.407 475.783 628.53 473.518C638.861 462.054 648.627 449.883 659.242 438.561C663.487 434.032 669.007 430.352 674.527 427.663C683.301 423.559 687.406 416.624 690.519 408.132C691.935 404.311 694.058 400.348 696.747 397.376C707.503 385.346 715.57 372.184 717.976 355.908C719.957 342.179 721.797 328.451 724.486 314.864C725.902 307.788 729.015 300.995 731.846 294.343C735.526 285.709 737.365 276.935 735.809 267.452C733.827 255.564 734.959 244.383 739.63 232.919C746.282 216.219 751.518 198.811 746.989 180.553C745.433 174.043 743.876 166.542 739.63 162.013C730.572 152.531 728.591 141.208 725.902 129.461C722.363 113.469 718.401 97.3344 713.164 81.9077C711.041 75.6805 705.38 70.3024 700.426 65.6319C695.048 60.3954 687.83 56.9987 682.594 51.7621C676.791 45.8179 670.847 39.3075 667.309 32.0895C661.647 20.4842 654.146 10.8603 643.39 3.92535C630.794 -4.00024 618.198 -11.926 605.319 -19.1439C593.289 -25.9373 580.41 -27.4941 566.399 -25.0881C546.726 -21.6913 528.186 -16.0302 511.91 -4.84943C503.843 0.670166 497.332 8.45428 490.398 15.3892C483.321 22.3241 476.528 29.5421 469.734 36.6185C461.809 44.6857 451.336 46.6671 441.004 49.073C423.879 53.0358 406.612 54.3097 389.204 54.8758C350.284 56.291 321.271 74.5482 302.164 108.657C299.617 113.327 294.097 116.724 289.285 119.554C282.209 123.659 274.141 125.923 267.065 130.028C254.044 137.529 249.657 149.983 247.817 164.278C244.703 189.328 243.43 215.086 229.418 237.448C228.428 239.005 227.72 240.986 226.305 242.118C217.813 248.629 209.746 256.554 200.263 261.225C180.591 270.707 174.93 287.691 171.674 306.939C169.835 318.403 173.514 328.734 181.157 336.943C190.356 346.708 192.055 358.455 192.479 370.91C192.621 374.731 192.762 378.411 193.328 382.232C194.602 391.148 199.131 397.517 207.764 400.772C209.746 401.48 211.586 402.612 213.567 403.461C228.569 410.113 230.55 413.935 227.578 430.21C225.597 440.825 222.342 451.581 222.483 462.196C222.625 475.217 224.465 488.379 228.003 500.975C230.834 511.448 240.741 516.826 250.931 519.091C268.197 522.912 285.605 525.742 302.872 528.998C334.857 534.942 366.701 540.886 398.687 546.83C403.357 546.972 408.877 547.255 414.255 547.962ZM417.935 541.594C411.141 540.603 404.348 540.037 397.696 538.763C368.683 533.385 339.811 527.865 310.939 522.487C291.266 518.807 271.594 515.552 251.921 511.448C243.43 509.608 235.504 505.079 233.24 496.021C229.277 480.312 226.305 464.177 230.692 447.902C232.107 442.948 232.815 437.711 233.523 432.616C237.202 408.981 235.362 404.735 213.284 395.394C203.518 391.29 199.556 384.78 199.556 374.873C199.697 358.314 196.159 343.453 185.12 329.725C171.108 312.175 180.732 280.473 200.263 269.292C211.586 262.782 224.04 255.705 231.541 245.657C240.316 233.91 245.836 219.049 249.657 204.755C253.761 189.611 253.903 173.618 256.167 158.05C257.299 149.842 261.121 142.482 268.339 138.095C275.557 133.849 283.199 130.028 290.983 127.197C298.201 124.508 304.287 120.97 307.825 114.176C323.676 84.0307 348.019 66.4811 382.411 62.9428C400.81 61.103 419.492 62.9429 437.749 57.7064C451.053 53.8851 465.064 52.4697 475.395 41.7135C486.293 30.2497 497.332 19.069 508.372 7.88818C510.495 5.7652 512.901 3.78375 515.448 2.08545C531.724 -8.52924 549.84 -14.0488 568.805 -17.4456C580.834 -19.5685 591.874 -17.4455 602.064 -11.6428C614.235 -4.84943 625.982 2.65161 637.729 10.0111C648.061 16.5214 654.854 25.5793 660.232 36.477C664.195 44.2611 670.281 51.0545 676.508 57.4233C681.886 62.9429 689.104 66.4811 694.907 71.7177C699.294 75.6805 704.248 80.4925 706.088 85.8705C711.041 100.731 714.438 116.158 718.684 131.301C721.373 141.208 720.948 152.248 729.015 160.173C743.451 174.043 742.602 191.593 739.63 208.859C737.932 218.908 733.12 228.532 730.431 238.439C728.874 244.241 727.6 250.469 728.308 256.413C729.864 271.415 730.289 285.851 722.646 299.579C720.099 304.25 718.684 309.769 717.693 315.006C715.428 328.451 713.589 341.896 711.89 355.342C709.909 369.919 702.691 381.808 693.492 392.847C689.953 397.093 687.123 402.046 685.141 407.283C682.452 414.076 679.339 419.454 672.262 423.134C665.61 426.531 659.242 431.484 654.005 437.004C643.815 448.043 634.474 459.79 624.708 471.254C623.859 472.244 622.444 473.094 621.17 473.518C610.272 477.056 601.215 483.001 592.298 490.36C580.127 500.409 566.399 508.617 553.095 517.109C543.188 523.336 532.573 525.742 520.685 522.629C510.919 520.081 500.871 518.241 490.822 516.968C485.161 516.26 478.792 515.977 473.414 517.675C462.658 521.072 452.468 525.742 441.995 529.988C440.296 530.696 438.74 532.111 437.607 533.526C432.654 539.471 426.285 542.726 417.935 541.594Z" fill="#A8A29E"/>
<path d="M413.689 86.4371C406.895 86.4371 399.961 86.5786 393.167 86.4371C381.42 86.1541 371.513 89.6922 361.748 96.9102C348.444 106.817 333.866 115.309 319.572 123.942C311.646 128.754 303.013 132.717 294.804 137.246C290.559 139.652 286.03 142.199 283.058 145.738C277.255 152.673 271.735 160.174 267.206 168.099C264.234 173.194 261.828 179.422 261.687 185.224C261.545 197.396 262.677 209.709 263.81 221.88C264.659 229.806 263.244 236.316 256.167 240.987C254.044 242.402 251.921 244.242 250.506 246.223C242.439 257.262 231.258 264.197 219.087 269.717C205.641 275.803 198.989 286.559 197.999 300.712C196.159 323.498 202.528 345.152 210.312 366.098C214.416 376.854 223.474 383.931 234.23 388.035C242.297 391.149 250.789 393.413 258.998 396.244C260.838 396.951 262.394 398.508 264.093 399.641C262.96 401.339 262.111 403.32 260.555 404.452C253.053 409.548 250.364 416.058 250.931 425.54C251.497 434.881 248.949 444.505 247.817 453.988C247.675 455.544 247.109 457.243 246.685 458.8C241.165 481.586 244.703 490.078 266.64 498.145C286.313 505.363 306.834 511.024 327.073 516.402C332.876 517.959 339.952 517.534 345.755 515.694C357.077 512.156 367.409 513.147 378.165 517.251C384.392 519.657 391.469 521.638 397.838 521.214C404.348 520.789 412.557 518.949 416.519 514.562C431.38 497.437 450.062 497.295 469.734 499.843C480.632 501.258 491.53 503.664 502.569 504.797C517.996 506.353 532.573 501.683 546.443 495.739C550.547 493.899 553.378 489.087 557.058 485.832C560.171 483.001 563.568 480.454 567.106 478.189C568.38 477.34 570.22 477.34 571.918 477.057C588.335 474.509 600.082 464.885 611.688 453.422C627.114 438.136 640.701 420.87 660.374 409.689C673.111 402.471 680.046 389.026 681.603 374.448C683.443 358.456 689.529 344.727 698.445 331.99C704.248 323.64 707.22 315.289 703.682 304.958C700.851 296.324 699.011 287.125 698.02 278.209C697.596 273.68 699.153 268.302 701.417 264.197C708.352 252.026 710.758 240.279 704.531 226.551C702.266 221.597 704.389 214.096 706.088 208.293C711.041 191.027 716.844 174.185 713.164 155.786C711.324 146.587 707.786 138.52 701.417 131.302C691.227 120.262 681.178 108.94 672.404 96.9102C668.016 90.8244 666.459 82.7573 663.487 75.5394C654.713 54.31 640.984 37.6096 619.755 27.7026C607.442 21.8999 595.129 23.7397 582.674 27.8441C574.466 30.5331 565.974 32.5146 557.765 34.7791C551.538 36.4774 545.028 38.0341 538.942 40.2986C530.167 43.5538 521.392 47.092 512.759 50.7718C501.295 55.7253 491.247 62.6602 483.321 72.2842C477.518 79.2191 470.583 82.6158 461.384 83.4649C445.533 84.8802 429.823 87.2863 413.972 89.2677C413.83 87.8524 413.83 87.1447 413.689 86.4371ZM414.113 95.0703C414.255 95.778 414.255 96.4857 414.396 97.3348C432.512 95.0704 450.769 93.5135 468.744 90.3999C474.829 89.4092 482.047 85.871 485.585 81.2005C502.286 59.4051 528.752 55.4423 551.113 43.9784C553.236 42.8462 556.208 43.4123 558.756 42.8462C566.965 41.0063 575.456 39.8741 583.24 36.6189C597.11 30.9578 610.131 30.5332 623.01 38.7419C642.116 50.7718 653.014 68.7459 659.666 89.8337C661.081 94.2211 662.921 98.8916 665.752 102.43C674.81 113.752 684.292 124.933 694.199 135.548C700.002 141.916 703.54 148.851 705.097 157.202C708.352 173.902 703.257 189.329 699.011 205.038C697.03 212.256 694.341 221.314 696.747 227.4C701.983 240.137 700.143 250.328 693.775 261.508C691.085 266.179 689.529 272.265 689.953 277.501C690.944 287.267 693.208 297.032 696.18 306.373C698.87 314.582 696.747 320.95 692.076 327.461C682.169 341.189 675.942 356.05 673.819 373.175C671.979 387.752 664.337 399.499 650.75 406.717C647.212 408.557 643.815 410.821 640.984 413.652C628.53 425.54 615.934 437.146 604.328 449.742C594.987 459.932 584.656 467.15 570.927 469.273C568.097 469.697 564.983 470.122 562.86 471.537C558.756 474.226 555.076 477.623 551.538 481.02C548.707 483.709 546.726 487.955 543.329 489.37C526.204 496.588 508.513 500.409 489.548 496.446C477.377 493.899 464.922 493.05 452.468 491.917C438.173 490.644 426.002 495.173 416.236 505.929C411.566 511.024 405.905 514.562 398.97 514.279C393.026 513.996 386.798 513.147 381.279 510.882C368.683 505.929 356.511 504.23 343.49 509.042C339.103 510.599 333.583 510.741 328.913 509.75C310.09 505.363 291.125 501.117 272.726 495.173C248.808 487.388 245.552 478.472 253.337 454.412C256.309 445.071 257.016 434.74 257.158 424.691C257.299 418.039 259.139 413.793 264.234 409.689C267.489 407 271.452 402.047 270.886 398.65C270.32 395.253 265.225 391.573 261.262 389.875C253.337 386.478 244.703 384.497 236.495 381.383C227.295 377.987 219.511 371.901 216.397 362.56C209.746 342.321 202.952 321.8 206.066 299.721C207.623 288.965 213.001 282.03 222.483 276.652C233.239 270.566 243.005 262.782 253.053 255.564C256.45 253.158 258.856 249.195 262.111 246.789C270.32 240.704 273.151 232.778 272.301 222.729C271.169 210.558 270.037 198.245 270.178 186.073C270.178 181.261 272.443 176.025 274.99 171.779C278.953 164.986 283.907 158.617 288.86 152.39C290.842 149.842 293.248 147.011 296.078 146.021C322.261 137.104 341.934 117.432 365.569 104.27C376.042 98.467 385.383 94.2212 397.13 94.9288C402.791 95.2119 408.452 95.0703 414.113 95.0703Z" fill="#A8A29E"/>
<path d="M333.584 488.804C353.822 485.831 374.061 482.859 394.3 479.746C412.274 477.057 430.106 474.226 448.081 471.396C460.252 469.414 472.141 470.829 483.321 476.066C498.606 483.284 512.052 478.189 524.082 469.131C531.017 463.753 537.385 459.224 546.585 458.799C551.821 458.516 557.341 456.535 561.87 453.846C579.844 442.524 597.111 430.352 611.83 414.784C621.454 404.594 632.351 395.395 643.107 386.337C651.175 379.402 655.562 370.768 655.421 360.437C655.279 347.841 658.393 336.943 668.3 328.168C678.631 319.11 681.462 307.364 675.659 294.767C671.13 284.86 670.989 274.953 672.404 264.48C675.235 243.251 677.357 221.88 679.339 200.651C679.905 194.282 680.471 187.63 678.914 181.686C677.074 174.326 673.961 166.825 669.432 160.74C661.931 150.833 652.59 142.341 644.523 132.717C641.409 128.896 639.711 123.942 637.871 119.272C636.597 116.016 636.739 112.054 635.04 109.082C627.681 96.7686 620.321 84.4555 612.113 72.7086C607.442 66.0568 599.941 64.0753 592.016 64.9245C577.297 66.6229 562.719 68.8874 548 70.1611C534.272 71.2933 524.365 80.0681 513.042 86.2953C499.739 93.6548 486.718 102.147 472.565 107.242C457.563 112.62 442.844 121.253 425.719 119.272C414.963 117.998 404.348 116.158 393.592 114.46C377.316 111.912 364.72 116.866 355.096 130.735C351.983 135.264 346.604 138.661 341.651 141.633C329.196 149.134 316.176 155.786 303.863 163.57C288.011 173.76 285.322 185.366 295.937 202.915C303.863 216.219 299.475 229.947 300.891 243.534C294.097 251.035 290.701 261.65 279.944 265.329C269.33 269.009 261.263 274.104 256.451 285.71C253.054 293.918 245.27 300.712 238.335 306.939C227.862 316.28 224.89 325.479 231.117 338.217C236.636 349.539 244.562 358.455 256.309 364.117C269.047 370.202 281.501 376.854 293.814 383.789C302.589 388.743 302.589 391.432 295.937 399.074C292.257 403.32 288.719 407.849 284.756 411.812C276.972 419.879 278.812 431.201 274.142 440.401C273.717 441.391 273.717 442.948 274.283 443.939C279.378 454.695 283.341 466.442 290.276 475.783C297.211 485.124 309.099 486.539 320.422 487.105C324.667 487.247 328.913 487.105 333.159 487.105C333.442 487.671 333.442 488.237 333.584 488.804ZM338.113 481.727C325.658 480.595 316.883 481.161 308.958 478.755C302.447 476.774 295.796 472.245 291.691 466.867C287.021 461.064 284.615 453.138 282.067 445.92C281.077 443.231 282.209 439.693 282.916 436.579C283.624 432.9 286.596 428.937 285.747 425.965C283.624 419.171 287.445 415.35 290.984 411.104C293.531 408.132 296.645 405.443 299.334 402.471C309.099 392.564 308.533 385.912 296.645 378.977C284.473 371.901 272.019 364.966 259.423 358.739C249.091 353.643 242.156 345.718 237.203 335.811C232.108 325.621 234.514 319.252 242.864 311.609C250.223 304.816 258.432 297.598 262.395 288.823C266.924 278.492 274.142 274.529 283.341 270.991C287.304 269.434 290.842 266.462 293.956 263.49C297.494 260.093 300.608 256.13 303.297 252.026C305.278 248.771 307.542 244.949 307.542 241.411C307.684 225.418 310.515 208.718 300.041 194.282C299.617 193.716 299.475 193.008 299.334 192.301C295.937 181.827 296.645 177.865 305.703 171.637C316.176 164.419 326.932 157.626 338.254 151.823C348.586 146.445 358.351 141.209 365.286 131.019C368.258 126.631 375.052 122.951 380.43 122.244C388.355 121.253 396.847 122.527 404.773 124.084C423.455 127.622 441.712 128.329 459.403 119.555C462.092 118.139 465.206 117.573 468.178 116.724C485.727 111.771 502.286 104.411 516.864 93.0888C529.743 83.0403 543.754 76.5299 561.021 77.2375C569.937 77.6621 579.136 74.6901 588.053 73.2747C594.705 72.1425 601.923 71.2934 606.31 77.5206C614.236 88.8429 621.312 100.873 628.53 112.62C629.521 114.318 630.087 116.583 630.087 118.706C630.37 127.622 635.323 133.849 641.126 140.076C649.759 149.134 658.251 158.334 665.894 168.241C669.007 172.345 671.13 178.148 671.272 183.243C671.696 192.725 670.423 202.349 669.573 211.973C668.158 229.098 666.743 246.223 664.761 263.348C663.488 274.529 662.497 285.285 667.875 295.758C672.687 305.382 671.696 314.44 663.346 322.083C652.59 331.848 647.778 343.736 647.778 358.455C647.778 364.966 645.089 373.033 640.56 377.562C625.416 392.989 609.424 407.708 593.148 421.86C582.109 431.343 569.937 439.552 558.049 447.902C554.652 450.166 550.265 451.581 546.16 451.865C535.687 452.431 527.761 456.96 519.836 463.894C511.769 470.971 500.588 476.066 490.539 471.396C470.867 462.196 451.336 463.47 431.097 467.008C398.546 472.245 366.56 477.198 338.113 481.727Z" fill="#A8A29E"/>
<path d="M339.245 457.95C360.191 457.808 380.005 453.704 399.961 446.486C423.455 437.994 448.364 433.749 473.556 437.287C479.783 438.136 485.586 442.099 491.813 443.939C496.767 445.354 502.569 447.76 507.098 446.345C528.186 439.834 549.699 433.89 565.125 416.057C568.663 411.953 574.042 409.406 578.853 406.575C587.77 401.338 597.111 396.809 606.027 391.573C614.66 386.478 619.755 378.552 620.888 368.645C622.02 358.738 626.266 351.379 634.757 346.001C644.24 339.915 644.806 330.574 642.966 320.95C641.409 312.175 640.277 304.108 646.08 296.041C648.061 293.21 647.637 287.549 646.504 283.728C643.532 274.245 643.108 264.622 644.948 255.139C648.344 238.014 641.268 223.72 633.908 209.567C628.389 198.952 622.161 188.762 612.82 180.695C606.452 175.317 600.507 168.523 596.969 161.164C593.573 153.946 592.016 145.313 591.874 137.104C591.45 112.053 576.872 107.383 556.067 114.318C536.819 120.828 517.855 127.622 498.465 133.707C490.681 136.113 482.472 137.246 474.264 138.236C463.083 139.793 451.761 141.208 440.58 141.916C423.879 142.907 407.179 143.331 390.479 143.331C380.713 143.331 371.797 145.313 363.588 150.549C350.567 158.899 337.547 167.533 324.385 175.741C310.939 184.233 308.533 191.734 315.751 205.887C321.554 217.209 322.262 228.815 321.412 241.411C320.422 259.102 313.911 270.566 296.928 276.651C289.71 279.199 283.058 283.728 276.831 288.257C263.952 297.881 262.961 312.175 263.669 326.47C263.81 330.149 267.773 334.395 271.17 336.801C276.972 341.047 283.483 344.585 289.993 347.841C303.721 354.492 314.194 364.966 323.96 376.288C327.923 380.958 329.338 386.336 326.508 392.139C322.403 400.631 318.582 409.264 313.487 417.19C307.26 426.672 305.844 436.013 309.807 446.628C312.779 454.553 318.157 458.233 326.508 458.233C330.753 457.95 334.999 457.95 339.245 457.95ZM341.227 451.723C337.688 451.723 334.15 451.723 330.612 451.723C317.025 451.864 309.241 440.683 314.619 428.087C318.723 418.322 323.535 408.839 328.347 399.499C333.018 390.299 335.141 381.241 327.781 372.467C317.874 360.72 307.401 349.539 293.107 342.745C287.021 339.773 280.935 336.377 275.274 332.555C272.727 330.857 269.33 327.743 269.33 325.196C269.33 313.449 269.188 300.853 279.944 293.21C288.295 287.125 297.636 282.454 306.977 278.067C318.016 272.689 325.658 265.612 325.8 252.45C325.8 248.912 326.508 245.374 327.215 241.977C329.763 228.249 328.064 215.369 321.412 202.915C315.751 192.3 317.167 187.771 327.498 181.403C338.254 174.751 349.86 169.09 359.767 161.305C370.806 152.672 382.694 148.992 396.423 149.276C408.736 149.559 421.19 150.549 433.22 148.851C465.206 144.322 498.182 143.897 528.328 129.745C532.574 127.763 537.244 126.631 541.773 125.499C551.822 122.951 561.729 119.837 571.919 118.422C579.278 117.431 583.099 121.677 584.09 129.178C584.656 133.849 584.656 138.661 585.647 143.19C587.487 151.398 588.477 160.173 592.299 167.391C595.837 174.326 601.64 180.553 607.725 185.648C617.066 193.291 622.586 203.34 627.539 213.671C633.201 225.56 640.702 237.165 638.013 251.742C636.031 263.065 635.89 274.67 639.428 285.992C640.277 288.54 640.419 292.22 639.003 294.201C632.918 302.834 633.625 311.609 636.031 321.233C638.296 330.432 637.163 338.641 627.256 344.019C620.18 347.841 616.076 354.775 615.226 363.126C613.953 376.146 607.018 384.78 595.695 390.582C589.185 393.837 582.533 397.093 576.306 400.631C571.069 403.603 565.125 406.433 561.304 410.821C547.009 427.097 527.62 433.465 508.372 440.683C502.569 442.806 497.757 441.957 492.521 438.561C487.567 435.305 481.482 432.899 475.679 432.05C449.213 427.663 423.172 432.05 398.404 440.683C379.581 446.769 360.899 451.015 341.227 451.723Z" fill="#A8A29E"/>
<path d="M374.627 434.739C384.534 432.192 394.724 430.352 404.49 427.097C413.406 424.125 421.615 419.171 430.389 416.057C444.967 410.679 459.827 412.661 474.122 417.048C498.465 424.549 522.525 423.275 541.065 405.726C556.492 391.148 575.032 383.364 592.299 372.891C599.517 368.504 604.895 362.701 603.904 353.502C603.338 348.124 605.602 345.576 609.99 343.878C610.839 343.595 611.688 343.17 612.679 342.887C630.511 337.367 628.955 322.931 622.161 310.618C619.614 305.948 616.642 301.278 614.377 296.466C612.254 291.795 611.688 287.408 616.217 283.02C621.029 278.491 621.312 272.406 617.632 266.744C614.377 261.649 610.697 256.696 606.593 252.167C601.073 246.081 596.544 239.712 592.865 231.928C586.92 219.191 578.853 207.444 571.494 195.414C566.682 187.347 561.87 179.28 556.633 171.495C554.51 168.382 551.397 165.127 548 163.711C534.696 158.333 520.826 157.343 507.24 162.296C489.407 168.806 471.008 170.646 452.326 170.505C446.241 170.505 440.013 170.646 433.928 170.08C410.717 167.391 389.063 174.751 367.409 180.978C358.351 183.525 350.992 189.187 347.312 198.527C344.765 205.179 345.755 210.982 351.416 215.652C353.256 217.209 355.238 218.483 356.936 220.04C366.56 228.249 367.975 235.184 361.323 245.515C358.068 250.469 353.398 254.573 349.576 259.102C347.17 261.932 344.34 264.763 343.066 268.16C340.377 275.095 334.999 279.199 329.621 284.011C320.705 291.937 312.213 300.57 305.278 310.194C298.485 319.676 300.183 326.611 308.25 331.989C316.6 337.65 324.243 344.444 331.178 351.803C338.254 359.446 345.331 367.796 350.001 376.995C353.539 384.213 353.398 393.271 354.813 401.48C355.379 405.16 355.521 408.839 356.087 412.519C356.228 413.935 357.361 415.774 356.794 416.482C355.096 418.746 350.85 420.303 354.672 423.558C359.059 427.238 361.323 434.173 368.966 432.899C370.523 432.616 372.221 432.899 373.919 432.899C374.344 433.749 374.486 434.315 374.627 434.739ZM377.033 431.06C373.353 429.503 367.268 428.937 366.277 426.389C363.446 418.888 362.597 410.679 361.182 402.754C359.625 393.554 360.05 383.506 356.228 375.439C351.275 365.107 343.632 355.625 335.848 346.991C329.479 339.773 321.412 334.254 314.194 328.026C307.542 322.365 306.693 319.252 312.213 312.883C319.855 304.108 328.63 296.182 336.697 287.691C340.943 283.162 344.764 278.208 348.586 273.255C351.133 270 353.115 265.895 356.37 263.489C365.286 257.262 368.541 247.496 373.212 238.722C374.203 236.882 374.061 233.627 373.07 231.928C369.532 225.843 366.277 219.332 361.323 214.662C351.841 205.462 351.699 198.952 363.305 191.734C366.843 189.47 370.947 188.054 374.91 186.639C400.102 178.006 426.002 176.59 452.326 177.864C472.424 178.855 492.238 176.307 511.344 169.231C522.383 165.127 533.706 165.976 544.603 169.939C547.434 170.929 549.981 173.618 551.68 176.166C556.775 183.525 561.445 191.168 566.116 198.811C573.475 210.841 581.825 222.446 587.77 235.183C591.591 243.251 596.261 250.186 602.064 256.696C605.744 260.659 608.716 265.188 611.971 269.433C615.085 273.538 614.519 277.501 610.839 280.756C605.744 285.285 606.027 290.946 608.008 296.324C610.131 301.985 612.82 307.646 616.217 312.6C624.85 325.337 623.01 332.697 608.857 338.5C601.923 341.33 597.111 345.293 598.526 353.785C599.658 360.295 595.695 364.824 590.742 367.655C579.986 373.882 568.663 379.118 557.907 385.487C552.671 388.459 547.575 392.281 543.754 396.81C532.573 410.113 517.288 414.784 501.296 415.633C491.53 416.199 481.481 412.378 471.574 410.255C452.751 406.433 434.918 407 417.652 417.19C405.339 424.125 392.035 429.361 377.033 431.06Z" fill="#A8A29E"/>
<path d="M398.404 397.376C403.923 395.961 410.575 394.828 416.661 392.564C435.06 385.771 453.883 388.601 472.706 390.158C473.839 390.299 474.971 390.866 475.962 391.432C495.493 403.179 517.996 400.348 535.262 385.063C541.206 379.826 548.424 375.864 555.359 372.042C564.983 366.664 572.626 360.295 574.89 348.69C575.456 345.576 579.278 342.746 582.108 340.481C584.656 338.5 588.053 337.509 591.025 336.235C607.583 328.734 611.688 315.289 604.328 298.589C599.233 286.842 592.44 277.076 582.674 268.726C579.278 265.754 577.862 260.376 575.881 255.847C572.201 247.214 568.663 238.58 565.266 229.806C562.436 222.588 559.322 215.511 557.624 208.01C555.359 197.82 548.991 191.027 538.659 192.017C530.167 192.725 521.959 196.122 513.467 197.537C506.956 198.669 499.88 199.943 493.653 198.528C467.753 192.159 442.278 188.904 416.944 200.226C410.151 203.34 402.791 205.746 396.564 209.85C388.214 215.228 387.081 222.305 391.044 231.363C393.592 237.165 396.281 242.968 397.696 249.054C398.262 251.743 396.847 256.13 394.724 257.828C390.761 261.367 385.666 263.773 380.996 266.32C372.929 270.424 367.975 276.935 365.852 285.71C364.861 289.531 363.729 293.494 362.88 297.315C361.04 306.09 356.087 312.034 348.161 315.997C344.198 317.978 340.235 320.384 336.839 323.215C328.347 330.433 328.488 335.528 336.839 342.887C346.604 351.379 356.37 359.729 366.277 368.221C370.24 371.618 373.07 374.731 369.956 380.817C367.55 385.487 371.513 391.998 376.891 393.413C383.826 395.111 390.62 395.961 398.404 397.376ZM398.404 392.281C390.761 391.007 384.958 390.158 379.297 389.026C375.476 388.318 373.919 385.629 375.901 382.232C380.288 375.014 377.033 369.495 371.938 364.683C363.446 356.757 354.954 349.115 346.18 341.614C335.14 332.414 335.14 331.14 348.019 323.922C350.425 322.507 352.831 320.95 355.379 319.677C362.738 315.855 366.843 309.345 369.249 301.702C370.523 297.598 371.513 293.494 372.504 289.389C374.344 281.322 378.448 275.52 386.232 271.84C392.035 269.009 397.838 265.329 402.367 260.801C404.914 258.111 406.471 252.592 405.622 248.912C404.206 241.836 400.951 235.184 397.979 228.532C395.29 222.588 396.139 217.634 401.8 214.662C408.452 211.124 415.387 208.152 422.322 205.321C444.542 196.122 467.187 198.245 489.407 204.472C500.163 207.444 509.362 207.161 519.269 202.491C525.638 199.519 533.139 198.245 540.216 197.537C546.726 196.971 549.981 201.5 551.821 207.586C554.227 215.936 557.199 224.003 560.313 232.212C563.426 240.562 566.823 248.771 570.361 256.838C572.767 262.216 574.466 268.726 578.57 272.123C588.477 280.331 595.271 290.097 600.507 301.702C606.168 314.581 602.488 326.328 589.609 331.848C586.213 333.263 582.391 334.537 579.419 336.802C576.023 339.491 571.494 342.887 570.786 346.567C568.805 357.748 561.445 363.126 552.529 368.079C545.169 372.184 537.668 376.571 531.724 382.374C524.081 389.875 515.448 393.838 505.258 393.696C495.634 393.696 485.161 396.244 477.801 386.761C477.094 385.771 475.254 385.346 473.98 385.204C454.732 383.365 435.626 380.675 416.661 387.61C410.292 389.875 403.499 391.007 398.404 392.281Z" fill="#A8A29E"/>
<path d="M393.45 361.852C392.884 371.618 395.998 374.59 407.32 375.581C431.946 377.704 456.431 380.534 481.057 382.374C490.256 383.082 500.163 383.082 508.796 380.534C516.156 378.27 522.383 371.901 528.893 367.089C535.121 362.419 541.206 357.748 547.009 352.653C553.661 346.567 559.888 339.774 566.257 333.405C569.088 330.575 571.777 327.744 574.749 325.196C576.73 323.498 579.136 322.366 581.118 320.809C592.015 311.893 591.449 303.118 579.844 295.334C573.617 291.23 566.682 287.408 561.87 281.889C558.048 277.501 556.209 270.708 555.359 264.764C554.51 258.678 555.501 252.168 556.35 245.799C557.341 238.439 554.935 233.486 548.283 230.231C540.64 226.409 533.564 221.173 525.638 218.767C514.457 215.37 502.852 212.681 491.247 211.832C477.518 210.983 463.507 211.832 449.637 213.247C435.626 214.662 424.445 222.305 415.953 233.344C410.292 240.704 408.452 248.629 412.698 257.829C414.114 260.942 413.264 266.037 411.849 269.434C408.028 278.775 403.64 287.833 398.828 296.749C396.139 301.703 392.743 306.798 388.355 310.194C380.147 316.422 374.061 323.64 371.513 333.83C369.815 340.906 371.655 346.426 377.316 350.672C382.553 354.351 387.931 358.031 393.45 361.852ZM406.046 369.07C409.443 362.985 404.065 361.003 399.678 358.031C393.592 353.927 387.506 349.964 382.128 345.011C379.864 342.888 378.59 338.359 379.014 335.245C380.147 326.753 385.666 320.809 392.743 316.422C399.536 312.317 403.357 306.09 406.188 298.872C409.585 290.38 413.406 282.03 418.076 274.105C422.039 267.311 423.313 261.225 420.199 253.441C418.642 249.762 419.209 243.676 421.19 240.279C426.851 231.08 435.343 223.579 446.099 221.88C476.811 216.785 507.381 215.37 535.828 232.354C548.707 239.996 548.141 239.288 546.726 253.866C545.169 269.151 546.16 284.295 562.577 292.928C567.672 295.617 572.06 299.863 576.872 303.118C581.684 306.373 581.684 309.77 577.438 313.308C575.173 315.289 572.484 316.846 570.22 318.828C566.54 322.083 563.143 325.48 559.747 329.018C553.803 334.962 548.283 341.331 542.197 346.992C536.678 352.087 529.601 355.767 525.214 361.569C515.873 374.165 503.701 378.977 488.982 377.704C461.667 375.156 434.352 372.043 406.046 369.07Z" fill="#A8A29E"/>
<path d="M466.479 355.766C472.424 355.766 478.226 355.766 484.17 355.766C500.163 355.766 514.175 350.105 526.488 340.481C529.884 337.792 532.573 333.971 534.979 330.291C539.225 323.922 542.763 316.988 547.434 310.76C551.538 305.241 551.255 300.429 546.726 295.617C544.745 293.635 542.905 291.088 540.499 289.956C531.441 285.71 530.167 278.633 532.432 269.858C534.272 262.923 532.856 256.555 529.318 250.186C522.666 238.014 511.627 234.193 499.031 234.759C479.358 235.467 461.667 241.836 447.515 256.13C441.429 262.216 435.909 269.009 436.9 278.35C439.164 299.013 427.276 312.176 413.548 324.489C411.142 326.611 407.745 328.451 406.613 331.282C405.339 334.254 405.339 338.217 406.188 341.472C409.16 354.634 419.775 355.625 430.673 355.766C442.561 355.908 454.591 355.766 466.479 355.766ZM542.905 302.693C537.385 312.176 532.573 320.526 527.62 328.593C526.063 331.14 523.799 333.546 521.393 335.245C511.061 342.463 499.88 347.982 486.86 348.265C471.291 348.548 455.723 348.832 440.155 348.832C433.079 348.832 425.861 348.69 419.067 346.992C415.529 346.142 411.991 341.897 410.434 338.358C409.726 336.66 412.84 331.848 415.387 330.433C426.427 323.922 432.795 313.591 439.447 303.259C443.552 297.032 445.392 290.38 443.976 283.162C442.419 274.387 445.958 267.594 452.043 261.65C464.356 249.478 479.5 243.534 496.484 242.685C517.288 241.553 526.629 252.167 523.657 272.547C522.242 282.454 525.072 289.956 533.989 295.192C537.527 297.032 540.216 300.287 542.905 302.693Z" fill="#A8A29E"/>
<path d="M493.936 297.173C495.068 289.247 496.625 283.444 496.342 277.642C496.059 271.698 492.52 266.744 486.293 265.329C480.066 263.914 474.405 265.187 470.017 270.848C464.781 277.359 461.243 284.152 462.658 292.785C464.073 301.136 459.969 306.372 453.6 311.184C449.779 314.015 445.674 317.694 443.693 321.799C441.57 326.328 439.306 333.546 441.429 336.518C443.976 340.198 451.336 342.745 456.289 342.321C473.556 340.622 490.681 337.509 507.806 334.82C511.344 334.253 514.457 333.687 512.759 328.592C512.476 327.601 514.174 325.479 515.448 324.488C523.515 317.27 522.666 310.76 512.901 305.948C505.966 302.551 499.031 299.579 493.936 297.173ZM448.505 333.546C447.939 332.555 447.373 331.706 446.807 330.715C450.345 326.611 453.317 321.657 457.563 318.544C467.045 311.609 472.706 303.542 471.15 291.087C470.725 287.549 472.706 283.444 474.405 280.048C476.245 276.51 479.358 272.547 483.887 275.377C488.416 278.208 487.85 283.02 485.586 287.407C480.349 297.597 480.632 299.579 490.256 305.381C496.625 309.203 503.418 312.175 508.938 315.005C508.655 330.998 497.332 329.583 487.142 330.574C477.66 331.423 468.177 333.263 458.695 334.253C455.44 334.395 451.902 333.687 448.505 333.546Z" fill="#A8A29E"/>
</g>
</svg>
