<svg width="123" height="26" viewBox="0 0 123 26" fill="none" xmlns="http://www.w3.org/2000/svg">
<path d="M32.335 2.448C29.0047 3.82474 26.8838 6.59684 24.4838 9.05265C24.7257 9.05265 25.0233 9.07125 25.321 9.05265C26.214 9.01544 26.8094 9.48056 27.1629 10.2247C27.3489 10.6154 27.4791 11.1736 27.3303 11.5271C27.2373 11.7503 26.5861 11.862 26.1768 11.8433C24.2419 11.7689 22.6605 10.9875 21.5071 9.40614C20.5396 8.0666 20.9303 7.248 22.4187 6.61544C23.7582 6.03869 25.0419 5.2759 26.2326 4.40149C28.0373 3.04335 30.0838 2.52242 32.335 2.448Z" fill="#F5F5F5"/>
<path d="M7.90698 8.99678C5.63721 6.42934 3.36744 3.86189 0 2.63399C0.0372093 2.54096 0.0930227 2.46655 0.130232 2.37352C0.316278 2.35492 0.520931 2.2991 0.706977 2.31771C2.84651 2.52236 4.76279 3.34096 6.49302 4.58748C7.77674 5.51771 8.94884 6.52236 10.586 6.82003C11.3674 6.95027 11.6093 7.8991 11.2186 8.82934C10.4744 10.6898 7.47907 12.2712 5.54419 11.7875C5.33954 11.7317 5.07907 11.4154 5.04186 11.1735C4.93023 10.2619 5.82325 9.18283 6.73488 9.0712C7.14419 9.01538 7.53488 9.01538 7.90698 8.99678Z" fill="#F5F5F5"/>
<path d="M10.1953 11.0244C10.5488 11.6384 10.7534 12.1593 11.1069 12.5872C11.7953 13.443 12.5953 14.2058 13.2837 15.043C13.6185 15.4709 14.0279 15.9732 14.0651 16.4756C14.1581 17.443 14.0279 18.4477 13.9534 19.4337C13.8976 20.0291 13.9162 20.4756 14.5674 20.7919C15.3674 21.1826 15.6279 21.9639 15.6279 22.8198C15.6279 23.5826 15.293 23.7872 14.5488 23.5081C13.5813 23.136 13.0604 22.1872 13.0976 20.8663C13.172 18.4663 12.2604 16.4012 10.6046 14.8012C9.52553 13.7593 9.56274 12.7546 9.87902 11.5453C9.91622 11.3965 10.0279 11.2849 10.1953 11.0244Z" fill="#F5F5F5"/>
<path d="M18.493 20.4941C18.4371 19.0988 18.3627 17.8709 18.3255 16.643C18.3069 15.9546 18.5302 15.4523 19.1813 15.043C20.3534 14.2802 21.2464 13.2197 21.7488 11.8616C21.8604 11.5825 22.0278 11.3406 22.1767 11.043C23.0511 12.2151 22.9767 13.722 22.0278 14.5965C20.2232 16.2523 19.3116 18.3174 19.3674 20.7546C19.386 21.9453 19.0325 22.8755 17.972 23.4709C17.2092 23.9174 16.7999 23.6569 16.7813 22.8011C16.7627 21.5546 17.5441 20.9034 18.493 20.4941Z" fill="#F5F5F5"/>
<path d="M19.5164 6.91295C18.4931 7.73156 17.4885 8.56877 16.4652 9.38737C16.3536 9.46179 16.0745 9.46179 15.9629 9.38737C14.9396 8.56877 13.935 7.73156 12.9675 6.6897C13.7861 6.91295 14.6047 7.19202 15.4419 7.34086C15.9815 7.43388 16.5582 7.43388 17.0792 7.34086C17.8792 7.19202 18.6419 6.91295 19.4233 6.6897C19.4606 6.74551 19.4792 6.81993 19.5164 6.91295Z" fill="#F5F5F5"/>
<path d="M49.5322 3.44H46.5922V11H45.5122V3.44H42.5722V2.48H49.5322V3.44ZM48.8688 9.188C48.8688 8.788 48.9808 8.444 49.2048 8.156C49.4368 7.86 49.7528 7.632 50.1528 7.472C50.5528 7.312 51.0168 7.232 51.5448 7.232C51.8248 7.232 52.1208 7.256 52.4328 7.304C52.7448 7.344 53.0208 7.408 53.2608 7.496V7.04C53.2608 6.56 53.1168 6.184 52.8288 5.912C52.5408 5.632 52.1328 5.492 51.6048 5.492C51.2608 5.492 50.9288 5.556 50.6088 5.684C50.2968 5.804 49.9648 5.98 49.6128 6.212L49.2288 5.468C49.6368 5.188 50.0448 4.98 50.4528 4.844C50.8608 4.7 51.2848 4.628 51.7248 4.628C52.5248 4.628 53.1568 4.852 53.6208 5.3C54.0848 5.74 54.3168 6.356 54.3168 7.148V9.8C54.3168 9.928 54.3408 10.024 54.3888 10.088C54.4448 10.144 54.5328 10.176 54.6528 10.184V11C54.5488 11.016 54.4568 11.028 54.3768 11.036C54.3048 11.044 54.2448 11.048 54.1968 11.048C53.9488 11.048 53.7608 10.98 53.6328 10.844C53.5128 10.708 53.4448 10.564 53.4288 10.412L53.4048 10.016C53.1328 10.368 52.7768 10.64 52.3368 10.832C51.8968 11.024 51.4608 11.12 51.0288 11.12C50.6128 11.12 50.2408 11.036 49.9128 10.868C49.5848 10.692 49.3288 10.46 49.1448 10.172C48.9608 9.876 48.8688 9.548 48.8688 9.188ZM52.9488 9.632C53.0448 9.52 53.1208 9.408 53.1768 9.296C53.2328 9.176 53.2608 9.076 53.2608 8.996V8.216C53.0128 8.12 52.7528 8.048 52.4808 8C52.2088 7.944 51.9408 7.916 51.6768 7.916C51.1408 7.916 50.7048 8.024 50.3688 8.24C50.0408 8.448 49.8768 8.736 49.8768 9.104C49.8768 9.304 49.9288 9.5 50.0328 9.692C50.1448 9.876 50.3048 10.028 50.5128 10.148C50.7288 10.268 50.9928 10.328 51.3048 10.328C51.6328 10.328 51.9448 10.264 52.2408 10.136C52.5368 10 52.7728 9.832 52.9488 9.632ZM52.0728 3.692L51.3768 3.452L52.0728 2.24H53.1288L52.0728 3.692ZM59.2213 11.12C58.7333 11.12 58.2893 11 57.8893 10.76C57.4893 10.52 57.1733 10.208 56.9413 9.824V11H56.0053V2.24H57.0613V5.984C57.3253 5.576 57.6493 5.248 58.0333 5C58.4173 4.752 58.8653 4.628 59.3773 4.628C59.8093 4.628 60.1973 4.72 60.5413 4.904C60.8853 5.08 61.1773 5.324 61.4173 5.636C61.6653 5.94 61.8533 6.288 61.9813 6.68C62.1173 7.064 62.1853 7.468 62.1853 7.892C62.1853 8.332 62.1093 8.748 61.9573 9.14C61.8133 9.524 61.6053 9.868 61.3333 10.172C61.0613 10.468 60.7453 10.7 60.3853 10.868C60.0333 11.036 59.6453 11.12 59.2213 11.12ZM58.9573 10.208C59.2693 10.208 59.5573 10.144 59.8213 10.016C60.0853 9.888 60.3133 9.716 60.5053 9.5C60.6973 9.284 60.8453 9.036 60.9493 8.756C61.0533 8.476 61.1053 8.188 61.1053 7.892C61.1053 7.484 61.0173 7.1 60.8413 6.74C60.6733 6.38 60.4333 6.092 60.1213 5.876C59.8173 5.652 59.4613 5.54 59.0533 5.54C58.7573 5.54 58.4813 5.608 58.2253 5.744C57.9693 5.88 57.7413 6.06 57.5413 6.284C57.3493 6.5 57.1893 6.74 57.0613 7.004V8.816C57.1013 9.016 57.1853 9.2 57.3133 9.368C57.4413 9.536 57.5973 9.684 57.7813 9.812C57.9653 9.932 58.1573 10.028 58.3573 10.1C58.5653 10.172 58.7653 10.208 58.9573 10.208ZM63.4219 8.492V4.736H64.4779V8.288C64.4779 8.928 64.5899 9.408 64.8139 9.728C65.0379 10.048 65.3699 10.208 65.8099 10.208C66.0979 10.208 66.3739 10.148 66.6379 10.028C66.9099 9.9 67.1539 9.72 67.3699 9.488C67.5859 9.256 67.7539 8.98 67.8739 8.66V4.736H68.9299V9.8C68.9299 9.928 68.9539 10.024 69.0019 10.088C69.0579 10.144 69.1459 10.176 69.2659 10.184V11C69.1459 11.016 69.0499 11.024 68.9779 11.024C68.9139 11.032 68.8499 11.036 68.7859 11.036C68.5859 11.036 68.4139 10.976 68.2699 10.856C68.1259 10.728 68.0499 10.572 68.0419 10.388L68.0179 9.656C67.7459 10.12 67.3779 10.48 66.9139 10.736C66.4579 10.992 65.9579 11.12 65.4139 11.12C64.7579 11.12 64.2619 10.9 63.9259 10.46C63.5899 10.012 63.4219 9.356 63.4219 8.492ZM70.1969 9.188C70.1969 8.788 70.3089 8.444 70.5329 8.156C70.7649 7.86 71.0809 7.632 71.4809 7.472C71.8809 7.312 72.3449 7.232 72.8729 7.232C73.1529 7.232 73.4489 7.256 73.7609 7.304C74.0729 7.344 74.3489 7.408 74.5889 7.496V7.04C74.5889 6.56 74.4449 6.184 74.1569 5.912C73.8689 5.632 73.4609 5.492 72.9329 5.492C72.5889 5.492 72.2569 5.556 71.9369 5.684C71.6249 5.804 71.2929 5.98 70.9409 6.212L70.5569 5.468C70.9649 5.188 71.3729 4.98 71.7809 4.844C72.1889 4.7 72.6129 4.628 73.0529 4.628C73.8529 4.628 74.4849 4.852 74.9489 5.3C75.4129 5.74 75.6449 6.356 75.6449 7.148V9.8C75.6449 9.928 75.6689 10.024 75.7169 10.088C75.7729 10.144 75.8609 10.176 75.9809 10.184V11C75.8769 11.016 75.7849 11.028 75.7049 11.036C75.6329 11.044 75.5729 11.048 75.5249 11.048C75.2769 11.048 75.0889 10.98 74.9609 10.844C74.8409 10.708 74.7729 10.564 74.7569 10.412L74.7329 10.016C74.4609 10.368 74.1049 10.64 73.6649 10.832C73.2249 11.024 72.7889 11.12 72.3569 11.12C71.9409 11.12 71.5689 11.036 71.2409 10.868C70.9129 10.692 70.6569 10.46 70.4729 10.172C70.2889 9.876 70.1969 9.548 70.1969 9.188ZM74.2769 9.632C74.3729 9.52 74.4489 9.408 74.5049 9.296C74.5609 9.176 74.5889 9.076 74.5889 8.996V8.216C74.3409 8.12 74.0809 8.048 73.8089 8C73.5369 7.944 73.2689 7.916 73.0049 7.916C72.4689 7.916 72.0329 8.024 71.6969 8.24C71.3689 8.448 71.2049 8.736 71.2049 9.104C71.2049 9.304 71.2569 9.5 71.3609 9.692C71.4729 9.876 71.6329 10.028 71.8409 10.148C72.0569 10.268 72.3209 10.328 72.6329 10.328C72.9609 10.328 73.2729 10.264 73.5689 10.136C73.8649 10 74.1009 9.832 74.2769 9.632ZM83.9566 11.06C83.3966 11.06 82.8726 10.94 82.3846 10.7C81.9046 10.452 81.4846 10.124 81.1246 9.716C80.7646 9.3 80.4846 8.836 80.2846 8.324C80.0846 7.804 79.9846 7.268 79.9846 6.716C79.9846 6.14 80.0846 5.596 80.2846 5.084C80.4846 4.564 80.7606 4.104 81.1126 3.704C81.4726 3.304 81.8926 2.992 82.3726 2.768C82.8606 2.536 83.3886 2.42 83.9566 2.42C84.7806 2.42 85.4606 2.592 85.9966 2.936C86.5326 3.28 86.9366 3.728 87.2086 4.28L86.3806 4.856C86.1326 4.36 85.7926 3.992 85.3606 3.752C84.9286 3.512 84.4526 3.392 83.9326 3.392C83.5006 3.392 83.1086 3.484 82.7566 3.668C82.4046 3.852 82.1006 4.104 81.8446 4.424C81.5966 4.736 81.4046 5.092 81.2686 5.492C81.1406 5.892 81.0766 6.308 81.0766 6.74C81.0766 7.196 81.1486 7.628 81.2926 8.036C81.4446 8.436 81.6566 8.792 81.9286 9.104C82.2006 9.408 82.5166 9.648 82.8766 9.824C83.2366 10 83.6246 10.088 84.0406 10.088C84.5286 10.088 84.9926 9.964 85.4326 9.716C85.8726 9.468 86.2886 9.088 86.6806 8.576V9.692C85.9126 10.604 85.0046 11.06 83.9566 11.06ZM86.5486 7.568H84.7126V6.752H87.4606V11H86.5486V7.568ZM88.443 9.188C88.443 8.788 88.555 8.444 88.779 8.156C89.011 7.86 89.327 7.632 89.727 7.472C90.127 7.312 90.591 7.232 91.119 7.232C91.399 7.232 91.695 7.256 92.007 7.304C92.319 7.344 92.595 7.408 92.835 7.496V7.04C92.835 6.56 92.691 6.184 92.403 5.912C92.115 5.632 91.707 5.492 91.179 5.492C90.835 5.492 90.503 5.556 90.183 5.684C89.871 5.804 89.539 5.98 89.187 6.212L88.803 5.468C89.211 5.188 89.619 4.98 90.027 4.844C90.435 4.7 90.859 4.628 91.299 4.628C92.099 4.628 92.731 4.852 93.195 5.3C93.659 5.74 93.891 6.356 93.891 7.148V9.8C93.891 9.928 93.915 10.024 93.963 10.088C94.019 10.144 94.107 10.176 94.227 10.184V11C94.123 11.016 94.031 11.028 93.951 11.036C93.879 11.044 93.819 11.048 93.771 11.048C93.523 11.048 93.335 10.98 93.207 10.844C93.087 10.708 93.019 10.564 93.003 10.412L92.979 10.016C92.707 10.368 92.351 10.64 91.911 10.832C91.471 11.024 91.035 11.12 90.603 11.12C90.187 11.12 89.815 11.036 89.487 10.868C89.159 10.692 88.903 10.46 88.719 10.172C88.535 9.876 88.443 9.548 88.443 9.188ZM92.523 9.632C92.619 9.52 92.695 9.408 92.751 9.296C92.807 9.176 92.835 9.076 92.835 8.996V8.216C92.587 8.12 92.327 8.048 92.055 8C91.783 7.944 91.515 7.916 91.251 7.916C90.715 7.916 90.279 8.024 89.943 8.24C89.615 8.448 89.451 8.736 89.451 9.104C89.451 9.304 89.503 9.5 89.607 9.692C89.719 9.876 89.879 10.028 90.087 10.148C90.303 10.268 90.567 10.328 90.879 10.328C91.207 10.328 91.519 10.264 91.815 10.136C92.111 10 92.347 9.832 92.523 9.632ZM95.5195 8.492V4.736H96.5755V8.288C96.5755 8.928 96.6875 9.408 96.9115 9.728C97.1355 10.048 97.4675 10.208 97.9075 10.208C98.1955 10.208 98.4715 10.148 98.7355 10.028C99.0075 9.9 99.2515 9.72 99.4675 9.488C99.6835 9.256 99.8515 8.98 99.9715 8.66V4.736H101.028V9.8C101.028 9.928 101.052 10.024 101.1 10.088C101.156 10.144 101.244 10.176 101.364 10.184V11C101.244 11.016 101.148 11.024 101.076 11.024C101.012 11.032 100.948 11.036 100.884 11.036C100.684 11.036 100.512 10.976 100.368 10.856C100.224 10.728 100.148 10.572 100.14 10.388L100.116 9.656C99.8435 10.12 99.4755 10.48 99.0115 10.736C98.5555 10.992 98.0555 11.12 97.5115 11.12C96.8555 11.12 96.3595 10.9 96.0235 10.46C95.6875 10.012 95.5195 9.356 95.5195 8.492ZM98.6275 3.692L97.9315 3.452L98.6275 2.24H99.6835L98.6275 3.692ZM105.559 11.12C105.087 11.12 104.655 11.036 104.263 10.868C103.879 10.692 103.543 10.452 103.255 10.148C102.975 9.844 102.755 9.496 102.595 9.104C102.443 8.712 102.367 8.296 102.367 7.856C102.367 7.264 102.499 6.724 102.763 6.236C103.027 5.748 103.399 5.36 103.879 5.072C104.359 4.776 104.915 4.628 105.547 4.628C106.163 4.628 106.699 4.768 107.155 5.048C107.619 5.32 107.963 5.688 108.187 6.152L107.155 6.476C106.995 6.18 106.771 5.952 106.483 5.792C106.195 5.624 105.875 5.54 105.523 5.54C105.139 5.54 104.787 5.64 104.467 5.84C104.155 6.04 103.907 6.316 103.723 6.668C103.539 7.012 103.447 7.408 103.447 7.856C103.447 8.296 103.539 8.696 103.723 9.056C103.915 9.408 104.167 9.688 104.479 9.896C104.799 10.104 105.151 10.208 105.535 10.208C105.783 10.208 106.019 10.164 106.243 10.076C106.475 9.988 106.675 9.872 106.843 9.728C107.019 9.576 107.139 9.412 107.203 9.236L108.235 9.548C108.107 9.852 107.911 10.124 107.647 10.364C107.391 10.596 107.083 10.78 106.723 10.916C106.371 11.052 105.983 11.12 105.559 11.12ZM114.867 11H113.811V7.496C113.811 6.856 113.695 6.376 113.463 6.056C113.239 5.736 112.915 5.576 112.491 5.576C112.219 5.576 111.943 5.648 111.663 5.792C111.391 5.936 111.151 6.132 110.943 6.38C110.735 6.62 110.583 6.9 110.487 7.22V11H109.431V2.24H110.487V6.08C110.735 5.632 111.071 5.28 111.495 5.024C111.927 4.76 112.391 4.628 112.887 4.628C113.263 4.628 113.575 4.696 113.823 4.832C114.079 4.96 114.283 5.144 114.435 5.384C114.587 5.624 114.695 5.904 114.759 6.224C114.831 6.536 114.867 6.88 114.867 7.256V11ZM116.017 9.188C116.017 8.788 116.129 8.444 116.353 8.156C116.585 7.86 116.901 7.632 117.301 7.472C117.701 7.312 118.165 7.232 118.693 7.232C118.973 7.232 119.269 7.256 119.581 7.304C119.893 7.344 120.169 7.408 120.409 7.496V7.04C120.409 6.56 120.265 6.184 119.977 5.912C119.689 5.632 119.281 5.492 118.753 5.492C118.409 5.492 118.077 5.556 117.757 5.684C117.445 5.804 117.113 5.98 116.761 6.212L116.377 5.468C116.785 5.188 117.193 4.98 117.601 4.844C118.009 4.7 118.433 4.628 118.873 4.628C119.673 4.628 120.305 4.852 120.769 5.3C121.233 5.74 121.465 6.356 121.465 7.148V9.8C121.465 9.928 121.489 10.024 121.537 10.088C121.593 10.144 121.681 10.176 121.801 10.184V11C121.697 11.016 121.605 11.028 121.525 11.036C121.453 11.044 121.393 11.048 121.345 11.048C121.097 11.048 120.909 10.98 120.781 10.844C120.661 10.708 120.593 10.564 120.577 10.412L120.553 10.016C120.281 10.368 119.925 10.64 119.485 10.832C119.045 11.024 118.609 11.12 118.177 11.12C117.761 11.12 117.389 11.036 117.061 10.868C116.733 10.692 116.477 10.46 116.293 10.172C116.109 9.876 116.017 9.548 116.017 9.188ZM120.097 9.632C120.193 9.52 120.269 9.408 120.325 9.296C120.381 9.176 120.409 9.076 120.409 8.996V8.216C120.161 8.12 119.901 8.048 119.629 8C119.357 7.944 119.089 7.916 118.825 7.916C118.289 7.916 117.853 8.024 117.517 8.24C117.189 8.448 117.025 8.736 117.025 9.104C117.025 9.304 117.077 9.5 117.181 9.692C117.293 9.876 117.453 10.028 117.661 10.148C117.877 10.268 118.141 10.328 118.453 10.328C118.781 10.328 119.093 10.264 119.389 10.136C119.685 10 119.921 9.832 120.097 9.632ZM53.4021 23V17.58L51.0621 21.75H50.5121L48.1621 17.58V23H47.2621V15.9H48.2121L50.7821 20.51L53.3621 15.9H54.3021V23H53.4021ZM55.4035 21.49C55.4035 21.1567 55.4968 20.87 55.6835 20.63C55.8768 20.3833 56.1402 20.1933 56.4735 20.06C56.8068 19.9267 57.1935 19.86 57.6335 19.86C57.8668 19.86 58.1135 19.88 58.3735 19.92C58.6335 19.9533 58.8635 20.0067 59.0635 20.08V19.7C59.0635 19.3 58.9435 18.9867 58.7035 18.76C58.4635 18.5267 58.1235 18.41 57.6835 18.41C57.3968 18.41 57.1202 18.4633 56.8535 18.57C56.5935 18.67 56.3168 18.8167 56.0235 19.01L55.7035 18.39C56.0435 18.1567 56.3835 17.9833 56.7235 17.87C57.0635 17.75 57.4168 17.69 57.7835 17.69C58.4502 17.69 58.9768 17.8767 59.3635 18.25C59.7502 18.6167 59.9435 19.13 59.9435 19.79V22C59.9435 22.1067 59.9635 22.1867 60.0035 22.24C60.0502 22.2867 60.1235 22.3133 60.2235 22.32V23C60.1368 23.0133 60.0602 23.0233 59.9935 23.03C59.9335 23.0367 59.8835 23.04 59.8435 23.04C59.6368 23.04 59.4802 22.9833 59.3735 22.87C59.2735 22.7567 59.2168 22.6367 59.2035 22.51L59.1835 22.18C58.9568 22.4733 58.6602 22.7 58.2935 22.86C57.9268 23.02 57.5635 23.1 57.2035 23.1C56.8568 23.1 56.5468 23.03 56.2735 22.89C56.0002 22.7433 55.7868 22.55 55.6335 22.31C55.4802 22.0633 55.4035 21.79 55.4035 21.49ZM58.8035 21.86C58.8835 21.7667 58.9468 21.6733 58.9935 21.58C59.0402 21.48 59.0635 21.3967 59.0635 21.33V20.68C58.8568 20.6 58.6402 20.54 58.4135 20.5C58.1868 20.4533 57.9635 20.43 57.7435 20.43C57.2968 20.43 56.9335 20.52 56.6535 20.7C56.3802 20.8733 56.2435 21.1133 56.2435 21.42C56.2435 21.5867 56.2868 21.75 56.3735 21.91C56.4668 22.0633 56.6002 22.19 56.7735 22.29C56.9535 22.39 57.1735 22.44 57.4335 22.44C57.7068 22.44 57.9668 22.3867 58.2135 22.28C58.4602 22.1667 58.6568 22.0267 58.8035 21.86ZM61.0106 20.4C61.0106 19.9067 61.1106 19.4567 61.3106 19.05C61.5173 18.6367 61.7973 18.3067 62.1506 18.06C62.5106 17.8133 62.9206 17.69 63.3806 17.69C63.8006 17.69 64.1773 17.8 64.5106 18.02C64.844 18.24 65.104 18.5067 65.2906 18.82V15.7H66.1706V22C66.1706 22.1067 66.1906 22.1867 66.2306 22.24C66.2773 22.2867 66.3506 22.3133 66.4506 22.32V23C66.284 23.0267 66.154 23.04 66.0606 23.04C65.8873 23.04 65.734 22.98 65.6006 22.86C65.474 22.74 65.4106 22.6067 65.4106 22.46V22.02C65.204 22.3533 64.9273 22.6167 64.5806 22.81C64.234 23.0033 63.874 23.1 63.5006 23.1C63.1406 23.1 62.8073 23.03 62.5006 22.89C62.2006 22.7433 61.9373 22.5433 61.7106 22.29C61.4906 22.0367 61.3173 21.75 61.1906 21.43C61.0706 21.1033 61.0106 20.76 61.0106 20.4ZM65.2906 21.17V19.67C65.2106 19.4433 65.0806 19.24 64.9006 19.06C64.7206 18.8733 64.5173 18.7267 64.2906 18.62C64.0706 18.5067 63.8506 18.45 63.6306 18.45C63.3706 18.45 63.134 18.5067 62.9206 18.62C62.714 18.7267 62.534 18.8733 62.3806 19.06C62.234 19.24 62.1206 19.4467 62.0406 19.68C61.9606 19.9133 61.9206 20.1567 61.9206 20.41C61.9206 20.67 61.964 20.9167 62.0506 21.15C62.144 21.3833 62.2706 21.59 62.4306 21.77C62.5973 21.95 62.7873 22.09 63.0006 22.19C63.2206 22.29 63.4573 22.34 63.7106 22.34C63.8706 22.34 64.034 22.31 64.2006 22.25C64.374 22.19 64.5373 22.1067 64.6906 22C64.844 21.8933 64.974 21.77 65.0806 21.63C65.1873 21.4833 65.2573 21.33 65.2906 21.17ZM69.9497 23.1C69.5564 23.1 69.1964 23.03 68.8697 22.89C68.5497 22.7433 68.2697 22.5467 68.0297 22.3C67.7964 22.0467 67.613 21.7567 67.4797 21.43C67.353 21.1033 67.2897 20.7567 67.2897 20.39C67.2897 19.8967 67.403 19.4467 67.6297 19.04C67.8564 18.6333 68.1697 18.3067 68.5697 18.06C68.9764 17.8133 69.4397 17.69 69.9597 17.69C70.4864 17.69 70.943 17.8167 71.3297 18.07C71.723 18.3167 72.0264 18.6433 72.2397 19.05C72.4597 19.45 72.5697 19.8833 72.5697 20.35C72.5697 20.4167 72.5664 20.4833 72.5597 20.55C72.5597 20.61 72.5564 20.6567 72.5497 20.69H68.2197C68.2464 21.03 68.3397 21.3333 68.4997 21.6C68.6664 21.86 68.8797 22.0667 69.1397 22.22C69.3997 22.3667 69.6797 22.44 69.9797 22.44C70.2997 22.44 70.5997 22.36 70.8797 22.2C71.1664 22.04 71.363 21.83 71.4697 21.57L72.2297 21.78C72.1164 22.0333 71.9464 22.26 71.7197 22.46C71.4997 22.66 71.2364 22.8167 70.9297 22.93C70.6297 23.0433 70.303 23.1 69.9497 23.1ZM68.1897 20.08H71.7497C71.723 19.74 71.6264 19.44 71.4597 19.18C71.293 18.92 71.0797 18.7167 70.8197 18.57C70.5597 18.4233 70.273 18.35 69.9597 18.35C69.653 18.35 69.3697 18.4233 69.1097 18.57C68.8497 18.7167 68.6364 18.92 68.4697 19.18C68.3097 19.44 68.2164 19.74 68.1897 20.08ZM73.5479 23V17.78H74.4279V23H73.5479ZM73.5479 16.8V15.7H74.4279V16.8H73.5479ZM78.6126 18.55C78.1726 18.5567 77.7826 18.67 77.4426 18.89C77.1092 19.1033 76.8726 19.4 76.7326 19.78V23H75.8526V17.78H76.6726V18.99C76.8526 18.63 77.0892 18.34 77.3826 18.12C77.6826 17.8933 77.9959 17.7667 78.3226 17.74C78.3892 17.74 78.4459 17.74 78.4926 17.74C78.5392 17.74 78.5792 17.7433 78.6126 17.75V18.55ZM79.0754 21.49C79.0754 21.1567 79.1687 20.87 79.3554 20.63C79.5487 20.3833 79.8121 20.1933 80.1454 20.06C80.4787 19.9267 80.8654 19.86 81.3054 19.86C81.5387 19.86 81.7854 19.88 82.0454 19.92C82.3054 19.9533 82.5354 20.0067 82.7354 20.08V19.7C82.7354 19.3 82.6154 18.9867 82.3754 18.76C82.1354 18.5267 81.7954 18.41 81.3554 18.41C81.0687 18.41 80.7921 18.4633 80.5254 18.57C80.2654 18.67 79.9887 18.8167 79.6954 19.01L79.3754 18.39C79.7154 18.1567 80.0554 17.9833 80.3954 17.87C80.7354 17.75 81.0887 17.69 81.4554 17.69C82.1221 17.69 82.6487 17.8767 83.0354 18.25C83.4221 18.6167 83.6154 19.13 83.6154 19.79V22C83.6154 22.1067 83.6354 22.1867 83.6754 22.24C83.7221 22.2867 83.7954 22.3133 83.8954 22.32V23C83.8087 23.0133 83.7321 23.0233 83.6654 23.03C83.6054 23.0367 83.5554 23.04 83.5154 23.04C83.3087 23.04 83.1521 22.9833 83.0454 22.87C82.9454 22.7567 82.8887 22.6367 82.8754 22.51L82.8554 22.18C82.6287 22.4733 82.3321 22.7 81.9654 22.86C81.5987 23.02 81.2354 23.1 80.8754 23.1C80.5287 23.1 80.2187 23.03 79.9454 22.89C79.6721 22.7433 79.4587 22.55 79.3054 22.31C79.1521 22.0633 79.0754 21.79 79.0754 21.49ZM82.4754 21.86C82.5554 21.7667 82.6187 21.6733 82.6654 21.58C82.7121 21.48 82.7354 21.3967 82.7354 21.33V20.68C82.5287 20.6 82.3121 20.54 82.0854 20.5C81.8587 20.4533 81.6354 20.43 81.4154 20.43C80.9687 20.43 80.6054 20.52 80.3254 20.7C80.0521 20.8733 79.9154 21.1133 79.9154 21.42C79.9154 21.5867 79.9587 21.75 80.0454 21.91C80.1387 22.0633 80.2721 22.19 80.4454 22.29C80.6254 22.39 80.8454 22.44 81.1054 22.44C81.3787 22.44 81.6387 22.3867 81.8854 22.28C82.1321 22.1667 82.3287 22.0267 82.4754 21.86ZM90.3118 18.55C89.8718 18.5567 89.4818 18.67 89.1418 18.89C88.8085 19.1033 88.5718 19.4 88.4318 19.78V23H87.5518V17.78H88.3718V18.99C88.5518 18.63 88.7885 18.34 89.0818 18.12C89.3818 17.8933 89.6951 17.7667 90.0218 17.74C90.0885 17.74 90.1451 17.74 90.1918 17.74C90.2385 17.74 90.2785 17.7433 90.3118 17.75V18.55ZM91.1346 20.91V17.78H92.0146V20.74C92.0146 21.2733 92.1079 21.6733 92.2946 21.94C92.4813 22.2067 92.7579 22.34 93.1246 22.34C93.3646 22.34 93.5946 22.29 93.8146 22.19C94.0413 22.0833 94.2446 21.9333 94.4246 21.74C94.6046 21.5467 94.7446 21.3167 94.8446 21.05V17.78H95.7246V22C95.7246 22.1067 95.7446 22.1867 95.7846 22.24C95.8313 22.2867 95.9046 22.3133 96.0046 22.32V23C95.9046 23.0133 95.8246 23.02 95.7646 23.02C95.7113 23.0267 95.6579 23.03 95.6046 23.03C95.4379 23.03 95.2946 22.98 95.1746 22.88C95.0546 22.7733 94.9913 22.6433 94.9846 22.49L94.9646 21.88C94.7379 22.2667 94.4313 22.5667 94.0446 22.78C93.6646 22.9933 93.2479 23.1 92.7946 23.1C92.2479 23.1 91.8346 22.9167 91.5546 22.55C91.2746 22.1767 91.1346 21.63 91.1346 20.91ZM93.7246 16.91L93.1446 16.71L93.7246 15.7H94.6046L93.7246 16.91ZM98.9805 23.1C98.5471 23.1 98.1405 23.03 97.7605 22.89C97.3805 22.7433 97.0538 22.5267 96.7805 22.24L97.1205 21.62C97.4205 21.9 97.7205 22.1 98.0205 22.22C98.3205 22.34 98.6271 22.4 98.9405 22.4C99.3005 22.4 99.5938 22.3333 99.8205 22.2C100.047 22.06 100.16 21.8567 100.16 21.59C100.16 21.3967 100.1 21.2533 99.9805 21.16C99.8671 21.0667 99.7038 20.99 99.4905 20.93C99.2771 20.8633 99.0238 20.79 98.7305 20.71C98.3705 20.6033 98.0671 20.49 97.8205 20.37C97.5738 20.25 97.3871 20.1 97.2605 19.92C97.1338 19.74 97.0705 19.5133 97.0705 19.24C97.0705 18.9067 97.1571 18.6267 97.3305 18.4C97.5038 18.1667 97.7405 17.99 98.0405 17.87C98.3471 17.75 98.6938 17.69 99.0805 17.69C99.4671 17.69 99.8171 17.75 100.13 17.87C100.444 17.99 100.714 18.1667 100.94 18.4L100.54 19.01C100.334 18.7967 100.107 18.64 99.8605 18.54C99.6138 18.4333 99.3371 18.38 99.0305 18.38C98.8505 18.38 98.6738 18.4033 98.5005 18.45C98.3271 18.49 98.1838 18.5667 98.0705 18.68C97.9571 18.7867 97.9005 18.94 97.9005 19.14C97.9005 19.3067 97.9438 19.44 98.0305 19.54C98.1238 19.6333 98.2571 19.7133 98.4305 19.78C98.6105 19.8467 98.8271 19.92 99.0805 20C99.4738 20.1133 99.8138 20.2267 100.1 20.34C100.394 20.4533 100.62 20.6 100.78 20.78C100.94 20.96 101.02 21.21 101.02 21.53C101.02 22.0233 100.834 22.41 100.46 22.69C100.087 22.9633 99.5938 23.1 98.9805 23.1ZM104.773 22.74C104.7 22.7733 104.6 22.8167 104.473 22.87C104.347 22.9233 104.2 22.97 104.033 23.01C103.867 23.05 103.69 23.07 103.503 23.07C103.29 23.07 103.093 23.0333 102.913 22.96C102.733 22.88 102.59 22.76 102.483 22.6C102.377 22.4333 102.323 22.2267 102.323 21.98V18.47H101.613V17.78H102.323V16.04H103.203V17.78H104.373V18.47H103.203V21.71C103.217 21.8967 103.28 22.0367 103.393 22.13C103.507 22.2167 103.64 22.26 103.793 22.26C103.967 22.26 104.127 22.23 104.273 22.17C104.42 22.11 104.517 22.0667 104.563 22.04L104.773 22.74ZM105.589 23V17.78H106.469V23H105.589ZM105.589 16.8V15.7H106.469V16.8H105.589ZM110.204 23.1C109.81 23.1 109.45 23.03 109.124 22.89C108.804 22.7433 108.524 22.5433 108.284 22.29C108.05 22.0367 107.867 21.7467 107.734 21.42C107.607 21.0933 107.544 20.7467 107.544 20.38C107.544 19.8867 107.654 19.4367 107.874 19.03C108.094 18.6233 108.404 18.3 108.804 18.06C109.204 17.8133 109.667 17.69 110.194 17.69C110.707 17.69 111.154 17.8067 111.534 18.04C111.92 18.2667 112.207 18.5733 112.394 18.96L111.534 19.23C111.4 18.9833 111.214 18.7933 110.974 18.66C110.734 18.52 110.467 18.45 110.174 18.45C109.854 18.45 109.56 18.5333 109.294 18.7C109.034 18.8667 108.827 19.0967 108.674 19.39C108.52 19.6767 108.444 20.0067 108.444 20.38C108.444 20.7467 108.52 21.08 108.674 21.38C108.834 21.6733 109.044 21.9067 109.304 22.08C109.57 22.2533 109.864 22.34 110.184 22.34C110.39 22.34 110.587 22.3033 110.774 22.23C110.967 22.1567 111.134 22.06 111.274 21.94C111.42 21.8133 111.52 21.6767 111.574 21.53L112.434 21.79C112.327 22.0433 112.164 22.27 111.944 22.47C111.73 22.6633 111.474 22.8167 111.174 22.93C110.88 23.0433 110.557 23.1 110.204 23.1ZM113.021 21.49C113.021 21.1567 113.114 20.87 113.301 20.63C113.494 20.3833 113.757 20.1933 114.091 20.06C114.424 19.9267 114.811 19.86 115.251 19.86C115.484 19.86 115.731 19.88 115.991 19.92C116.251 19.9533 116.481 20.0067 116.681 20.08V19.7C116.681 19.3 116.561 18.9867 116.321 18.76C116.081 18.5267 115.741 18.41 115.301 18.41C115.014 18.41 114.737 18.4633 114.471 18.57C114.211 18.67 113.934 18.8167 113.641 19.01L113.321 18.39C113.661 18.1567 114.001 17.9833 114.341 17.87C114.681 17.75 115.034 17.69 115.401 17.69C116.067 17.69 116.594 17.8767 116.981 18.25C117.367 18.6167 117.561 19.13 117.561 19.79V22C117.561 22.1067 117.581 22.1867 117.621 22.24C117.667 22.2867 117.741 22.3133 117.841 22.32V23C117.754 23.0133 117.677 23.0233 117.611 23.03C117.551 23.0367 117.501 23.04 117.461 23.04C117.254 23.04 117.097 22.9833 116.991 22.87C116.891 22.7567 116.834 22.6367 116.821 22.51L116.801 22.18C116.574 22.4733 116.277 22.7 115.911 22.86C115.544 23.02 115.181 23.1 114.821 23.1C114.474 23.1 114.164 23.03 113.891 22.89C113.617 22.7433 113.404 22.55 113.251 22.31C113.097 22.0633 113.021 21.79 113.021 21.49ZM116.421 21.86C116.501 21.7667 116.564 21.6733 116.611 21.58C116.657 21.48 116.681 21.3967 116.681 21.33V20.68C116.474 20.6 116.257 20.54 116.031 20.5C115.804 20.4533 115.581 20.43 115.361 20.43C114.914 20.43 114.551 20.52 114.271 20.7C113.997 20.8733 113.861 21.1133 113.861 21.42C113.861 21.5867 113.904 21.75 113.991 21.91C114.084 22.0633 114.217 22.19 114.391 22.29C114.571 22.39 114.791 22.44 115.051 22.44C115.324 22.44 115.584 22.3867 115.831 22.28C116.077 22.1667 116.274 22.0267 116.421 21.86Z" fill="#F5F5F5"/>
</svg>
