<svg width="140" height="124" viewBox="0 0 140 124" fill="none" xmlns="http://www.w3.org/2000/svg">
<rect width="140" height="123.553" rx="4" fill="#404040"/>
<path d="M103.566 39.8687C96.6523 42.727 92.2489 48.4823 87.2661 53.581C87.7683 53.581 88.3863 53.6196 89.0043 53.581C90.8584 53.5038 92.0944 54.4694 92.8283 56.0145C93.2146 56.8256 93.485 57.9844 93.176 58.7183C92.9828 59.1818 91.6309 59.4136 90.7811 59.375C86.764 59.2204 83.4807 57.5981 81.0859 54.3149C79.0773 51.5338 79.8885 49.8342 82.9786 48.521C85.7597 47.3235 88.4249 45.7399 90.897 43.9244C94.6438 41.1047 98.8927 40.0232 103.566 39.8687Z" fill="#F5F5F5"/>
<path d="M52.8498 53.465C48.1374 48.1345 43.425 42.8041 36.4336 40.2548C36.5108 40.0616 36.6267 39.9071 36.704 39.714C37.0902 39.6754 37.5151 39.5595 37.9014 39.5981C42.3434 40.023 46.3219 41.7226 49.9142 44.3105C52.5794 46.2418 55.0129 48.3277 58.412 48.9457C60.0343 49.2161 60.5364 51.186 59.7253 53.1173C58.1802 56.98 51.9614 60.2632 47.9442 59.2589C47.5194 59.143 46.9786 58.4864 46.9013 57.9842C46.6696 56.0915 48.5236 53.8512 50.4163 53.6195C51.2661 53.5036 52.0773 53.5036 52.8498 53.465Z" fill="#F5F5F5"/>
<path d="M57.6011 57.6746C58.335 58.9492 58.7599 60.0308 59.4938 60.9192C60.923 62.696 62.5839 64.2797 64.0131 66.0178C64.7083 66.9063 65.5581 67.9492 65.6354 68.9921C65.8285 71.0006 65.5581 73.0865 65.4036 75.1337C65.2877 76.3697 65.3264 77.2967 66.6783 77.9534C68.3392 78.7645 68.88 80.3868 68.88 82.1637C68.88 83.7473 68.1847 84.1722 66.6397 83.5928C64.6311 82.8203 63.5495 80.8504 63.6268 78.1079C63.7813 73.1251 61.8886 68.8376 58.4509 65.5157C56.2105 63.3526 56.2878 61.2668 56.9444 58.7561C57.0217 58.4471 57.2535 58.2153 57.6011 57.6746Z" fill="#F5F5F5"/>
<path d="M74.828 77.3353C74.7121 74.4383 74.5576 71.889 74.4803 69.3397C74.4417 67.9105 74.9052 66.8676 76.2572 66.0178C78.6906 64.4341 80.5447 62.2324 81.5876 59.4127C81.8193 58.8333 82.167 58.3312 82.476 57.7131C84.2914 60.1466 84.1369 63.2753 82.167 65.0908C78.4202 68.5285 76.5275 72.816 76.6434 77.8761C76.682 80.3482 75.9481 82.2795 73.7464 83.5155C72.1628 84.4426 71.313 83.9018 71.2744 82.125C71.2357 79.537 72.858 78.1851 74.828 77.3353Z" fill="#F5F5F5"/>
<path d="M76.9529 49.1386C74.8285 50.8381 72.7426 52.5763 70.6182 54.2759C70.3864 54.4304 69.807 54.4304 69.5753 54.2759C67.4508 52.5763 65.365 50.8381 63.3564 48.675C65.056 49.1386 66.7556 49.718 68.4938 50.027C69.6139 50.2201 70.8113 50.2201 71.8929 50.027C73.5538 49.718 75.1375 49.1386 76.7598 48.675C76.837 48.7909 76.8757 48.9454 76.9529 49.1386Z" fill="#F5F5F5"/>
</svg>
